<?xml version="1.0" standalone="no"?>
<!DOCTYPE svg PUBLIC "-//W3C//DTD SVG 20010904//EN"
 "http://www.w3.org/TR/2001/REC-SVG-20010904/DTD/svg10.dtd">
<svg version="1.0" xmlns="http://www.w3.org/2000/svg"
 width="450.000000pt" height="299.000000pt" viewBox="0 0 450.000000 299.000000"
 preserveAspectRatio="xMidYMid meet">
<metadata>
Created by potrace 1.10, written by Peter Selinger 2001-2011
</metadata>
<g transform="translate(0.000000,299.000000) scale(0.100000,-0.100000)"
fill="#000000" stroke="none">
<path d="M115 1181 c-9 -15 46 -37 115 -46 98 -13 159 -48 127 -73 -27 -21
-72 -22 -170 -2 -90 18 -105 24 -128 52 -28 33 -59 34 -59 1 0 -15 2 -16 10
-3 8 13 12 12 25 -7 21 -30 42 -40 137 -68 58 -17 78 -19 74 -10 -3 10 2 11
22 6 15 -5 33 -6 39 -4 7 3 13 0 13 -6 0 -6 4 -11 10 -11 5 0 7 6 4 13 -3 8 2
14 10 14 8 0 13 -4 10 -8 -2 -4 0 -11 6 -14 6 -4 17 10 26 31 29 68 -16 102
-163 124 -32 5 -68 12 -79 15 -12 4 -25 2 -29 -4z"/>
<path d="M4004 1156 c-17 -8 -39 -24 -48 -37 -20 -29 -21 -93 -1 -112 8 -8 12
-17 10 -21 -3 -3 5 2 16 13 20 18 18 48 -2 36 -5 -4 -9 0 -9 9 0 8 -3 21 -6
30 -8 21 42 66 73 66 35 0 83 -51 83 -88 0 -28 2 -29 40 -27 44 2 71 -21 69
-60 0 -13 -4 -9 -10 12 -5 18 -14 35 -19 38 -14 8 -13 -8 1 -22 29 -29 -28
-79 -77 -67 -14 4 -24 2 -24 -4 0 -6 8 -13 18 -15 9 -3 5 -4 -10 -4 -22 1 -25
4 -17 18 15 29 10 34 -11 11 -24 -26 -55 -29 -64 -6 -3 8 -11 12 -17 8 -8 -4
-9 -3 -5 4 4 6 -6 19 -21 29 -15 10 -32 23 -36 30 -5 8 -13 11 -18 7 -5 -3 -8
0 -7 7 3 14 -38 39 -65 39 -11 0 -32 -9 -48 -21 -28 -19 -29 -24 -30 -97 0
-42 -1 -94 -2 -116 -1 -32 5 -44 31 -67 21 -19 43 -29 63 -29 34 0 99 35 99
52 0 6 14 26 30 45 17 18 30 40 30 48 0 7 8 14 18 14 74 3 139 11 157 21 25
14 45 50 45 82 0 24 -46 78 -66 78 -7 0 -23 18 -35 40 -12 22 -37 46 -55 55
-38 18 -40 18 -80 1z m94 -23 c12 -10 30 -35 41 -55 17 -31 18 -37 5 -42 -8
-3 -12 -1 -9 4 9 14 -21 65 -51 89 -15 12 -22 21 -16 21 5 0 19 -8 30 -17z
m-124 -116 c7 -6 6 -7 -4 -4 -8 2 -16 14 -17 28 -1 19 -1 20 4 4 3 -11 10 -24
17 -28z m-79 3 c3 -6 -1 -7 -9 -4 -18 7 -21 14 -7 14 6 0 13 -4 16 -10z m3
-35 c12 -15 19 -32 16 -40 -4 -10 0 -12 16 -8 15 4 26 0 32 -11 5 -9 14 -13
20 -10 6 4 8 2 4 -4 -3 -6 -2 -13 4 -17 28 -17 -18 -80 -51 -70 -16 5 -19 1
-19 -28 0 -19 -7 -40 -15 -47 -21 -18 -82 -4 -100 23 -14 22 -15 120 -1 134 4
4 4 0 0 -10 -7 -19 3 -22 26 -7 13 9 12 12 -4 25 -10 8 -22 13 -25 11 -3 -2
-6 15 -6 38 l0 43 41 2 c35 1 46 -3 62 -24z m303 -66 c-13 -10 -31 -19 -40
-18 -12 0 -11 2 4 9 12 4 27 15 34 24 8 9 17 14 20 10 3 -3 -5 -14 -18 -25z
m-138 -26 c-7 -2 -21 -2 -30 0 -10 3 -4 5 12 5 17 0 24 -2 18 -5z"/>
<path d="M1404 1088 c-41 -32 -51 -47 -63 -95 -16 -62 -34 -66 -27 -7 4 34 3
43 -3 29 -5 -11 -10 -38 -10 -60 -1 -30 -4 -36 -11 -25 -7 11 -10 11 -10 2 0
-7 -4 -10 -10 -7 -5 3 -10 1 -10 -4 0 -6 5 -11 12 -11 7 0 -3 -16 -22 -35 -18
-19 -31 -37 -28 -40 3 -3 26 17 52 45 51 54 60 57 102 35 16 -8 36 -15 44 -15
23 1 100 38 100 49 0 18 -83 23 -132 8 -27 -8 -48 -12 -48 -7 0 10 44 40 90
61 35 16 104 79 96 87 -7 7 -75 -18 -82 -30 -4 -7 -2 -8 4 -4 19 11 14 -5 -5
-21 -25 -19 -53 -35 -53 -29 0 2 8 12 18 22 9 10 17 20 18 23 0 3 4 14 9 24
12 28 1 29 -31 5z m41 -166 c-10 -2 -25 3 -33 12 -15 14 -13 15 17 3 23 -8 28
-13 16 -15z m40 18 c3 -5 1 -10 -4 -10 -6 0 -11 5 -11 10 0 6 2 10 4 10 3 0 8
-4 11 -10z m-90 -10 c3 -5 1 -10 -4 -10 -6 0 -11 5 -11 10 0 6 2 10 4 10 3 0
8 -4 11 -10z"/>
<path d="M6 1081 c-4 -5 3 -12 14 -16 11 -4 30 -27 42 -51 11 -25 37 -59 57
-76 20 -17 27 -27 16 -23 -76 29 -92 34 -110 35 -14 0 -20 -7 -21 -25 -1 -18
2 -23 10 -17 23 18 59 21 82 5 13 -8 24 -12 24 -8 0 4 12 0 26 -10 41 -27 153
-12 181 24 11 14 12 14 13 -2 0 -10 -7 -20 -15 -23 -12 -5 -13 -9 -4 -21 10
-11 8 -18 -8 -35 -25 -25 -47 -15 -40 18 3 19 1 22 -9 13 -7 -6 -23 -8 -35 -4
-13 5 -19 3 -15 -3 3 -5 -1 -13 -10 -16 -9 -4 -14 -13 -10 -21 4 -11 -2 -15
-25 -15 -18 0 -28 4 -24 10 3 6 1 10 -4 10 -6 0 -11 5 -11 11 0 5 4 8 9 5 4
-3 6 6 3 19 -5 29 -14 31 -33 8 -12 -15 -12 -16 3 -10 12 4 15 2 12 -7 -5 -13
-43 -14 -63 -1 -6 3 -11 2 -11 -4 0 -17 39 -33 63 -26 22 6 22 6 2 -10 -11 -9
-19 -23 -17 -31 4 -20 -4 -18 -55 17 -25 18 -44 26 -41 19 2 -6 30 -28 62 -48
74 -46 150 -54 219 -24 49 22 78 62 70 97 -3 11 -6 40 -7 65 0 25 -5 51 -10
58 -14 23 -1 23 57 1 64 -25 76 -48 52 -105 l-15 -36 -40 32 c-22 17 -40 28
-40 23 0 -4 14 -17 30 -28 30 -20 39 -35 21 -35 -6 0 -13 5 -16 10 -9 15 -22
12 -22 -5 0 -25 35 -28 65 -5 29 23 39 47 41 98 1 30 -3 35 -46 53 -27 12 -61
22 -77 24 -15 1 -31 6 -35 11 -3 5 -17 10 -30 12 -20 2 -22 0 -12 -12 7 -8 20
-13 29 -10 9 3 5 -2 -11 -11 -31 -18 -37 -31 -6 -15 23 13 49 -1 49 -26 0 -16
-50 -44 -79 -44 -28 0 -52 11 -45 21 3 5 13 5 23 0 13 -8 18 -6 18 5 0 8 -6
13 -14 10 -8 -3 -16 1 -19 9 -4 8 -11 15 -16 15 -6 0 -8 -7 -4 -15 3 -8 1 -25
-4 -37 -8 -22 -11 -22 -14 5 -1 6 -7 11 -14 10 -7 -2 -12 3 -12 10 0 15 -39
54 -47 49 -3 -2 -7 -1 -11 3 -3 3 4 8 16 12 31 8 30 46 0 41 -15 -2 -22 -9
-22 -20 1 -10 -2 -15 -7 -12 -5 3 -9 11 -9 19 0 7 -6 20 -13 27 -7 7 -14 18
-15 23 -1 14 -29 18 -36 6z m328 -253 c-5 -7 -9 -19 -9 -27 0 -27 -66 -56
-125 -56 -66 1 -98 11 -82 27 6 6 8 17 5 24 -6 17 -1 17 31 3 21 -10 29 -8 52
10 29 23 59 27 70 9 4 -6 3 -8 -4 -5 -14 9 -43 -3 -36 -14 5 -8 -3 -11 -23 -8
-8 1 -26 -31 -20 -37 8 -9 77 8 77 18 0 5 -10 6 -22 2 -20 -6 -21 -5 -6 10 9
9 23 16 31 16 8 0 25 11 38 24 24 25 37 28 23 4z"/>
<path d="M2905 1075 c-16 -8 -25 -14 -20 -15 6 0 10 -14 10 -31 0 -27 6 -35
38 -51 46 -25 67 -13 67 39 0 69 -30 87 -95 58z m72 -55 l4 -39 -33 13 c-24
10 -33 21 -33 38 0 18 5 22 23 21 12 -2 22 2 22 9 0 27 13 -5 17 -42z"/>
<path d="M2920 1040 c0 -5 5 -10 11 -10 5 0 7 5 4 10 -3 6 -8 10 -11 10 -2 0
-4 -4 -4 -10z"/>
<path d="M170 1005 c14 -7 28 -11 32 -8 5 2 15 -3 24 -11 16 -17 39 -12 28 5
-3 5 -9 7 -14 4 -4 -3 -10 -1 -12 3 -1 5 -21 12 -43 15 -38 6 -39 5 -15 -8z"/>
<path d="M2542 1008 c-21 -26 -42 -87 -42 -122 0 -41 19 -66 85 -109 36 -23
51 -40 55 -61 3 -16 11 -31 18 -34 15 -5 15 -5 -4 52 -20 59 -15 172 10 207
31 45 16 62 -65 74 -33 5 -48 3 -57 -7z m113 -29 c14 -14 -19 -63 -44 -67 -21
-3 -29 -31 -13 -46 4 -4 8 -12 8 -17 1 -5 2 -10 4 -11 6 -8 6 -49 0 -53 -4 -2
-13 7 -20 20 -8 15 -22 25 -35 25 -14 0 -21 7 -22 21 -2 20 -1 20 18 3 25 -23
36 -11 11 12 -33 32 -44 62 -32 84 23 42 94 59 125 29z m-30 -99 c3 -5 1 -10
-4 -10 -6 0 -11 5 -11 10 0 6 2 10 4 10 3 0 8 -4 11 -10z"/>
<path d="M2635 972 c-5 -4 -11 -15 -12 -26 -1 -17 0 -17 14 -3 16 16 15 41 -2
29z"/>
<path d="M2576 961 c-4 -7 -5 -15 -2 -18 9 -9 19 4 14 18 -4 11 -6 11 -12 0z"/>
<path d="M2602 940 c0 -14 2 -19 5 -12 2 6 2 18 0 25 -3 6 -5 1 -5 -13z"/>
<path d="M2540 947 c0 -8 29 -67 33 -67 1 0 2 11 2 24 0 13 -3 22 -7 20 -4 -3
-11 4 -17 13 -6 10 -11 14 -11 10z"/>
<path d="M2310 987 c0 -27 13 -36 26 -16 3 6 -1 18 -10 27 -15 15 -16 14 -16
-11z"/>
<path d="M3252 983 c-13 -11 -21 -32 -22 -53 -4 -76 -2 -80 45 -100 26 -11 45
-26 45 -35 0 -13 -4 -14 -21 -4 -16 8 -32 8 -59 0 -39 -11 -60 -42 -60 -86 0
-14 -7 -43 -16 -65 l-16 -40 31 -35 c17 -20 31 -39 31 -44 0 -5 -23 -43 -51
-86 -27 -42 -47 -80 -44 -83 8 -8 46 40 90 114 28 47 46 66 77 80 77 35 106
113 71 192 -20 46 -18 60 14 94 23 24 25 32 18 74 -12 81 -81 121 -133 77z
m84 -16 c5 -4 0 -5 -11 -1 -17 6 -16 3 5 -17 13 -13 27 -23 30 -22 3 1 6 -16
8 -38 1 -24 -2 -39 -9 -39 -7 0 -9 9 -5 26 5 17 3 23 -4 19 -5 -3 -10 -3 -10
2 0 12 -50 68 -51 57 0 -5 -2 -22 -4 -39 -3 -27 -2 -28 9 -12 11 14 15 15 19
3 7 -18 -1 -26 -27 -27 -21 0 -21 -1 -1 -8 13 -6 23 -4 28 5 15 26 27 14 26
-23 -1 -38 -1 -38 -9 -8 -6 23 -8 25 -9 8 -1 -20 -3 -21 -24 -10 -48 25 -56
40 -41 76 7 17 9 29 4 26 -16 -10 -11 7 6 19 18 13 58 15 70 3z m-96 -196 c0
-5 -7 -12 -16 -15 -14 -5 -15 -4 -4 9 14 17 20 19 20 6z m60 -8 c20 -6 15 -82
-6 -84 -27 -3 -32 -4 -40 -11 -10 -11 -13 -89 -3 -82 5 3 9 21 9 40 0 19 2 34
4 34 2 0 11 3 19 6 10 4 16 -4 19 -26 4 -25 1 -34 -16 -40 -15 -6 -17 -9 -5
-9 25 -1 44 28 41 63 -1 17 2 38 8 46 8 13 10 12 11 -5 0 -11 2 -31 3 -44 3
-29 -39 -82 -59 -74 -9 3 -15 -1 -15 -11 0 -9 -4 -16 -10 -16 -5 0 -10 5 -10
11 0 6 -8 3 -17 -7 -21 -21 -31 -1 -11 23 11 14 11 16 -1 8 -11 -6 -13 -4 -8
7 3 9 1 20 -5 26 -7 7 -4 20 11 40 31 45 25 52 -10 12 -27 -30 -29 -31 -14 -6
9 15 15 36 12 46 -3 12 4 22 19 31 13 7 24 19 24 27 0 10 6 12 18 7 9 -4 24
-9 32 -12z m37 -35 c-3 -8 -6 -5 -6 6 -1 11 2 17 5 13 3 -3 4 -12 1 -19z
m-138 -112 c9 -10 8 -16 -4 -26 -13 -11 -15 -8 -15 14 0 30 3 32 19 12z"/>
<path d="M3256 734 c-4 -15 -2 -32 3 -37 8 -8 11 0 11 26 0 44 -5 47 -14 11z"/>
<path d="M2424 966 c-9 -24 12 -44 28 -28 10 10 8 16 -5 29 -15 15 -17 15 -23
-1z"/>
<path d="M3052 968 c-7 -7 -12 -18 -12 -25 0 -7 -8 -13 -17 -13 -13 0 -15 -2
-5 -8 7 -5 10 -16 7 -25 -8 -19 28 -57 53 -57 32 0 82 38 82 63 0 39 -84 89
-108 65z m42 -29 c-3 -5 2 -6 10 -3 9 3 19 -3 26 -16 9 -17 8 -25 -4 -39 -16
-18 -71 -28 -61 -11 3 6 2 10 -3 10 -12 0 -12 52 0 67 11 13 41 6 32 -8z"/>
<path d="M3067 943 c-4 -3 -7 -13 -7 -21 0 -18 13 -7 16 13 2 17 1 18 -9 8z"/>
<path d="M2815 957 c-11 -6 -27 -13 -35 -17 -11 -6 -14 -20 -12 -51 3 -50 16
-69 46 -69 29 0 76 46 76 73 -1 25 -22 57 -38 57 -6 0 -12 4 -14 9 -1 5 -12 4
-23 -2z m-11 -32 c-4 -8 -1 -15 5 -15 6 0 11 4 11 10 0 6 10 5 25 -2 33 -15
30 -47 -7 -68 -25 -14 -28 -13 -42 5 -8 11 -13 31 -11 45 2 14 4 28 4 33 1 4
5 7 11 7 5 0 7 -7 4 -15z"/>
<path d="M280 956 c0 -2 7 -6 15 -10 8 -3 15 -1 15 4 0 6 -7 10 -15 10 -8 0
-15 -2 -15 -4z"/>
<path d="M2350 940 c0 -13 5 -20 13 -17 6 2 12 10 12 17 0 7 -6 15 -12 18 -8
2 -13 -5 -13 -18z"/>
<path d="M360 942 c0 -5 7 -13 16 -16 10 -4 14 -1 12 6 -5 15 -28 23 -28 10z"/>
<path d="M1847 922 c-16 -17 -25 -35 -22 -44 3 -8 -1 -20 -9 -27 -12 -10 -17
-7 -32 18 -46 78 -134 53 -134 -38 0 -24 -5 -32 -25 -37 -25 -6 -70 -69 -60
-84 10 -16 76 -32 103 -25 15 4 42 16 61 28 24 14 48 20 80 18 37 -2 56 4 94
29 77 49 95 127 39 170 -34 28 -64 25 -95 -8z m88 -14 c18 -22 25 -38 20 -52
-4 -12 -7 -26 -7 -33 -1 -7 -5 -10 -9 -7 -4 2 -14 -4 -21 -14 -39 -55 -132
-73 -165 -32 -16 19 -17 43 -1 34 7 -4 8 -3 4 4 -7 11 8 16 43 14 8 0 20 6 28
14 8 8 21 14 28 14 14 0 13 36 -1 49 -4 3 -4 -2 -1 -11 4 -10 2 -18 -3 -18
-17 0 -11 21 13 46 29 31 40 30 72 -8z m-178 -34 l26 -26 -32 -25 c-31 -24
-31 -26 -16 -50 15 -23 15 -26 -2 -38 -10 -8 -34 -16 -53 -20 -19 -3 -46 -9
-59 -12 -16 -4 -22 -2 -17 5 5 8 2 10 -8 6 -11 -4 -16 0 -16 11 0 10 5 15 14
12 9 -4 13 2 12 16 -1 17 4 21 21 19 12 -2 24 2 28 8 3 6 10 8 14 5 5 -2 6 7
3 20 -3 17 1 27 12 31 9 3 16 10 16 15 0 6 -9 5 -20 -1 -25 -13 -26 -2 -2 17
11 10 12 12 2 8 -8 -4 -6 1 4 9 27 22 43 20 73 -10z"/>
<path d="M1695 790 c-3 -5 -1 -10 4 -10 6 0 11 5 11 10 0 6 -2 10 -4 10 -3 0
-8 -4 -11 -10z"/>
<path d="M1695 754 c9 -9 19 -13 23 -10 3 4 0 11 -8 16 -24 15 -33 11 -15 -6z"/>
<path d="M400 931 c0 -5 5 -13 10 -16 6 -3 10 -2 10 4 0 5 -4 13 -10 16 -5 3
-10 2 -10 -4z"/>
<path d="M509 911 c-35 -36 -36 -58 -4 -102 13 -19 31 -49 39 -67 16 -35 73
-66 101 -56 19 8 44 54 47 86 2 23 -28 78 -42 78 -4 0 -13 14 -20 30 -14 35
-45 60 -73 60 -10 0 -32 -13 -48 -29z m51 9 c0 -5 -4 -10 -10 -10 -5 0 -10 5
-10 10 0 6 5 10 10 10 6 0 10 -4 10 -10z m-40 -25 c-7 -9 -15 -13 -17 -11 -7
7 7 26 19 26 6 0 6 -6 -2 -15z m77 -1 c34 -9 44 -104 12 -104 -6 0 -7 9 -4 20
4 11 2 20 -4 20 -6 0 -8 7 -5 15 4 8 1 15 -5 15 -6 0 -11 -9 -11 -20 0 -11 5
-20 11 -20 8 0 8 -5 -1 -15 -10 -12 -10 -15 1 -15 9 0 7 -4 -5 -11 -14 -9 -24
-7 -45 8 -35 27 -40 75 -9 97 25 17 32 19 65 10z m80 -127 c-3 -21 -11 -44
-17 -52 -23 -28 -80 -13 -100 25 -9 17 -8 20 10 20 12 0 19 -4 16 -8 -2 -4 4
-13 15 -20 10 -7 19 -8 19 -3 0 5 -5 11 -11 13 -9 3 -9 10 0 26 7 13 17 20 23
16 7 -4 6 -9 -3 -15 -10 -6 -7 -9 10 -9 23 0 24 1 6 20 -10 11 -15 23 -11 28
4 4 14 -2 22 -12 8 -11 14 -15 14 -9 0 6 -7 16 -15 23 -8 7 -15 17 -15 23 0 5
9 2 21 -9 17 -15 20 -27 16 -57z"/>
<path d="M550 865 c0 -8 5 -15 10 -15 6 0 10 7 10 15 0 8 -4 15 -10 15 -5 0
-10 -7 -10 -15z"/>
<path d="M530 831 c0 -5 9 -7 20 -4 11 3 20 7 20 9 0 2 -9 4 -20 4 -11 0 -20
-4 -20 -9z"/>
<path d="M535 810 c-3 -5 1 -10 9 -10 9 0 16 5 16 10 0 6 -4 10 -9 10 -6 0
-13 -4 -16 -10z"/>
<path d="M630 741 c0 -5 5 -13 10 -16 6 -3 10 -2 10 4 0 5 -4 13 -10 16 -5 3
-10 2 -10 -4z"/>
<path d="M2123 915 c-29 -21 -30 -52 -1 -61 15 -4 25 -1 34 11 9 12 17 14 30
7 15 -8 14 -11 -12 -23 -45 -22 -56 -56 -44 -135 13 -83 46 -183 68 -207 12
-14 26 -17 49 -14 18 3 35 2 38 -3 7 -12 70 -21 89 -14 10 4 22 17 27 30 4 13
15 24 24 24 21 0 29 41 22 116 -7 69 -47 180 -64 177 -6 -1 -10 5 -9 14 0 8
-6 19 -14 23 -47 24 -69 31 -86 29 -10 -2 -30 4 -45 14 -39 26 -81 31 -106 12z
m30 -22 c-11 -33 -16 -37 -23 -17 -9 23 -4 34 15 34 9 0 12 -6 8 -17z m76 -9
c17 -14 31 -30 31 -35 0 -17 -25 -9 -40 12 -8 12 -21 28 -28 35 -23 24 5 15
37 -12z m124 -33 c4 -1 6 -4 5 -8 -4 -17 35 -94 42 -83 5 7 9 3 13 -12 10 -33
7 -46 -4 -23 -7 14 -8 9 -3 -20 3 -22 10 -45 14 -51 5 -5 7 -21 4 -35 -5 -19
-3 -21 5 -9 9 13 11 13 11 -2 0 -9 -5 -29 -11 -45 -8 -22 -12 -24 -19 -13 -8
12 -10 11 -11 -5 0 -20 0 -20 -9 0 -8 18 -9 18 -9 2 -1 -12 -6 -16 -13 -11
-10 6 -10 4 0 -7 21 -23 13 -36 -23 -37 -19 -1 -35 3 -35 9 0 6 -4 8 -9 5 -13
-8 -34 21 -25 35 4 8 3 9 -4 5 -18 -11 -39 41 -24 56 14 14 16 32 2 23 -5 -3
-14 9 -20 27 -6 21 -8 24 -6 8 2 -14 7 -34 11 -44 6 -14 5 -17 -3 -12 -17 10
-15 1 8 -44 25 -49 25 -50 -5 -50 -14 0 -25 4 -25 10 0 5 7 7 15 4 8 -4 15 -1
15 5 0 6 -3 10 -7 10 -23 -4 -34 4 -48 34 -15 30 -15 31 1 12 16 -20 16 -19 9
5 -4 14 -13 28 -19 32 -6 4 -8 8 -3 8 4 0 0 11 -9 25 -9 14 -14 28 -11 31 3 3
1 21 -5 40 -5 20 -6 48 -3 64 6 26 9 28 26 17 23 -15 25 -25 3 -23 -9 0 -19
-6 -22 -14 -5 -13 -3 -13 13 0 16 14 17 13 12 -5 -13 -43 -16 -91 -7 -105 10
-16 14 11 11 75 -1 21 1 26 7 17 7 -11 10 -11 15 2 4 9 4 22 1 29 -7 21 22 40
72 47 38 6 46 4 55 -12 6 -11 13 -17 16 -14 13 12 -28 44 -50 39 -18 -4 -19
-3 -7 6 8 5 24 8 35 6 11 -2 23 -4 28 -4z m-136 -9 c10 -6 8 -12 -5 -23 -25
-21 -45 -13 -32 12 12 21 19 23 37 11z m210 -164 c-3 -8 -6 -5 -6 6 -1 11 2
17 5 13 3 -3 4 -12 1 -19z"/>
<path d="M2286 811 c-4 -5 3 -7 14 -4 23 6 26 13 6 13 -8 0 -17 -4 -20 -9z"/>
<path d="M2236 799 c2 -4 -2 -10 -8 -12 -7 -3 -8 -6 -2 -6 5 -1 19 5 30 13 19
14 18 15 -3 13 -12 0 -20 -4 -17 -8z"/>
<path d="M2350 758 c0 -9 5 -29 12 -43 9 -20 9 -28 -2 -38 -10 -9 -11 -9 -6 0
4 7 3 21 -3 30 -7 14 -9 9 -7 -20 4 -49 11 -54 25 -20 8 22 8 37 -4 68 -8 22
-14 32 -15 23z"/>
<path d="M2367 634 c-4 -4 -7 -14 -7 -23 0 -11 3 -12 11 -4 6 6 10 16 7 23 -2
6 -7 8 -11 4z"/>
<path d="M2263 600 c-11 -16 -10 -18 2 -14 8 4 15 12 15 20 0 19 -3 18 -17 -6z"/>
<path d="M2266 572 c-2 -4 6 -12 19 -18 18 -9 22 -9 18 2 -6 15 -31 26 -37 16z"/>
<path d="M4449 901 c-17 -13 -33 -17 -56 -14 -28 5 -35 2 -50 -25 -15 -26 -20
-28 -40 -19 -27 12 -73 -13 -73 -42 0 -20 66 -91 85 -91 19 0 45 34 45 59 l0
23 31 -26 c37 -31 41 -32 64 -6 13 15 21 17 31 9 10 -8 13 -6 11 10 0 11 -6
19 -11 18 -5 -1 -12 6 -14 17 -3 13 0 16 9 11 8 -5 10 -4 5 4 -4 6 -12 8 -18
5 -8 -5 -9 -1 -5 10 4 9 3 14 -2 11 -13 -7 -25 15 -15 25 11 11 27 1 42 -25
14 -25 16 -1 2 26 -7 13 -7 19 0 19 5 0 10 5 10 10 0 16 -26 12 -51 -9z m-10
-55 c18 -19 22 -31 16 -53 -6 -25 -8 -26 -17 -10 -7 13 -6 22 2 33 10 11 9 14
-3 14 -23 0 -29 -16 -15 -39 17 -28 3 -37 -27 -17 -28 19 -34 39 -7 29 15 -6
15 -5 3 11 -10 12 -16 14 -21 5 -8 -12 -30 -4 -30 11 0 17 34 20 51 4 11 -10
19 -12 19 -6 0 6 -4 14 -10 17 -5 3 -10 10 -10 16 0 17 26 9 49 -15z m-103
-41 c6 -8 14 -11 18 -7 4 4 2 -6 -5 -22 -7 -15 -15 -23 -17 -16 -3 7 -19 25
-36 41 l-31 28 30 -5 c17 -3 35 -11 41 -19z m-38 -28 c26 -24 29 -47 6 -47
-10 0 -14 6 -11 14 6 15 -22 46 -42 46 -7 0 -9 5 -6 10 7 12 20 6 53 -23z
m-14 -26 c-2 -3 -12 3 -22 13 -16 17 -16 18 5 5 12 -7 20 -15 17 -18z"/>
<path d="M3502 893 c-12 -10 -27 -35 -36 -55 l-15 -37 33 -21 c43 -26 79 -25
110 3 40 36 42 63 7 97 -34 34 -69 38 -99 13z m69 -17 c-9 -11 -6 -15 14 -20
36 -9 26 -39 -22 -64 -28 -15 -46 -15 -37 0 5 7 2 9 -9 5 -19 -7 -44 18 -27
28 6 4 9 13 6 21 -3 9 0 11 11 7 11 -5 14 -3 8 6 -4 7 4 5 19 -4 15 -10 29
-15 32 -12 3 3 -4 8 -15 12 -28 8 -27 23 2 28 12 2 24 5 26 6 2 0 -2 -5 -8
-13z"/>
<path d="M3515 830 c-3 -5 -1 -10 4 -10 6 0 11 5 11 10 0 6 -2 10 -4 10 -3 0
-8 -4 -11 -10z"/>
<path d="M3540 820 c0 -5 7 -7 15 -4 8 4 15 8 15 10 0 2 -7 4 -15 4 -8 0 -15
-4 -15 -10z"/>
<path d="M0 881 c0 -5 5 -13 10 -16 5 -3 10 -2 10 4 0 5 -4 13 -10 16 -5 3
-10 2 -10 -4z"/>
<path d="M1324 826 c-28 -28 -34 -42 -34 -75 0 -56 20 -99 67 -149 39 -41 41
-42 106 -42 68 0 117 15 117 35 0 6 -23 38 -50 70 -28 33 -73 90 -101 128 -28
37 -56 67 -61 67 -6 0 -25 -15 -44 -34z m106 -62 c14 -20 37 -49 52 -65 24
-23 25 -28 12 -33 -20 -8 -61 37 -67 73 l-4 26 -2 -27 c-2 -40 45 -91 78 -85
21 4 31 -1 49 -26 l22 -32 -27 -8 c-69 -19 -147 19 -186 92 -31 56 -35 115
-10 150 l16 24 21 -26 c12 -14 32 -42 46 -63z m-107 -44 c3 -11 0 -23 -5 -27
-6 -3 -8 -1 -4 5 3 6 2 13 -4 17 -12 8 -13 25 -1 25 5 0 11 -9 14 -20z m15
-42 c-5 -13 44 -67 78 -86 17 -10 18 -11 1 -12 -27 0 -103 82 -92 99 9 15 18
14 13 -1z"/>
<path d="M1350 810 c-6 -11 -9 -29 -7 -38 4 -13 5 -13 6 4 0 11 6 25 13 32 6
6 9 14 6 18 -4 3 -12 -4 -18 -16z"/>
<path d="M1386 657 c3 -10 9 -15 12 -12 3 3 0 11 -7 18 -10 9 -11 8 -5 -6z"/>
<path d="M1515 610 c-18 -8 -17 -9 8 -9 16 -1 26 3 22 9 -3 6 -7 10 -8 9 -1 0
-11 -4 -22 -9z"/>
<path d="M802 823 c-16 -3 -22 -10 -18 -19 3 -8 2 -12 -4 -9 -11 7 -30 -26
-30 -52 0 -32 37 -63 75 -63 63 0 88 78 40 125 -13 14 -28 24 -32 24 -4 -1
-18 -4 -31 -6z m48 -33 c0 10 5 7 15 -7 17 -25 12 -65 -11 -84 -11 -9 -14 -8
-14 7 -1 18 -1 18 -15 0 -9 -12 -15 -15 -15 -7 0 7 -6 11 -15 8 -8 -4 -17 -2
-20 3 -4 6 -1 10 6 10 7 0 4 6 -7 14 -10 8 -16 18 -11 22 4 4 7 2 7 -4 0 -7 5
-12 10 -12 6 0 10 7 10 15 0 8 -6 15 -12 15 -7 0 1 8 17 18 27 17 31 17 42 3
10 -13 12 -14 13 -1z"/>
<path d="M3632 768 c-12 -28 -21 -52 -20 -54 11 -9 43 -7 41 4 -2 6 -4 18 -5
25 -2 6 3 11 10 10 6 -2 12 1 12 6 0 5 -6 12 -12 14 -7 3 -3 6 10 6 24 1 29
-18 11 -36 -7 -7 -9 -19 -5 -29 10 -25 23 -6 29 43 3 28 1 46 -8 53 -10 8 -14
7 -18 -7 -4 -17 -5 -17 -6 0 -2 30 -15 18 -39 -35z"/>
<path d="M1998 799 c-27 -15 -23 -57 7 -71 36 -16 75 3 75 36 0 38 -45 57 -82
35z m54 -31 c-3 -12 -14 -18 -34 -18 -17 0 -27 4 -23 10 3 6 13 10 21 10 8 0
13 4 10 8 -2 4 3 8 13 8 12 0 17 -6 13 -18z"/>
<path d="M2811 786 c-16 -19 -6 -36 20 -36 15 0 20 6 17 22 -4 27 -21 33 -37
14z"/>
<path d="M3001 787 c-6 -8 -39 -25 -73 -38 -79 -29 -131 -80 -146 -142 -17
-64 -15 -87 8 -125 53 -86 214 -76 275 17 20 30 25 54 31 141 6 94 5 107 -12
127 -25 29 -67 39 -83 20z m65 -21 c15 -12 17 -17 7 -27 -7 -7 -13 -18 -13
-23 0 -6 5 -4 10 4 11 16 8 -146 -3 -185 -3 -11 -6 -23 -6 -27 -1 -5 -7 -8
-15 -8 -8 0 -23 -11 -33 -23 -10 -13 -25 -24 -33 -24 -8 0 -41 -4 -73 -8 -56
-6 -59 -5 -87 25 -24 26 -30 41 -30 77 0 44 25 113 40 113 4 0 10 10 13 22 4
12 9 19 13 15 4 -4 15 0 24 8 9 8 35 21 58 29 24 9 53 22 65 31 27 19 38 19
63 1z"/>
<path d="M2915 668 c-29 -16 -35 -28 -35 -70 0 -36 26 -78 49 -78 29 0 64 24
75 51 16 37 12 59 -15 88 -22 23 -44 26 -74 9z m65 -20 c26 -28 26 -58 -1 -65
-14 -4 -17 -8 -9 -13 16 -10 4 -30 -17 -30 -10 0 -13 6 -9 18 5 14 4 14 -9 -2
-13 -17 -15 -18 -15 -3 0 9 -4 17 -9 17 -29 0 -16 58 19 87 21 17 26 16 50 -9z"/>
<path d="M3061 604 c0 -11 3 -14 6 -6 3 7 2 16 -1 19 -3 4 -6 -2 -5 -13z"/>
<path d="M2905 510 c3 -5 11 -10 16 -10 6 0 7 5 4 10 -3 6 -11 10 -16 10 -6 0
-7 -4 -4 -10z"/>
<path d="M1000 769 c-32 -7 -70 -39 -70 -60 0 -13 62 -57 106 -75 21 -9 67
-36 102 -61 34 -24 66 -42 71 -39 15 10 41 73 41 100 0 30 -52 93 -89 108 -54
22 -127 34 -161 27z m159 -62 c50 -33 75 -78 66 -118 -8 -36 -29 -47 -53 -27
-39 34 -123 88 -137 88 -18 0 -20 16 -2 23 7 3 5 6 -5 6 -10 1 -18 -4 -18 -10
0 -5 -14 -2 -31 8 l-30 18 22 17 c11 10 17 18 12 18 -5 0 -14 -5 -21 -12 -7
-7 -12 -8 -12 -2 0 22 17 26 92 22 62 -4 85 -10 117 -31z"/>
<path d="M1110 711 c0 -6 4 -13 10 -16 6 -3 7 1 4 9 -7 18 -14 21 -14 7z"/>
<path d="M1151 674 c14 -17 32 -19 27 -2 -2 6 -12 12 -22 14 -14 2 -15 0 -5
-12z"/>
<path d="M1087 646 c20 -26 27 -28 17 -3 -3 8 -12 18 -20 21 -11 4 -10 0 3
-18z"/>
<path d="M1193 604 c3 -4 2 -16 -4 -26 -8 -16 -8 -19 2 -16 16 5 23 48 7 48
-6 0 -8 -3 -5 -6z"/>
<path d="M2712 753 c4 -33 41 -45 52 -17 8 21 -11 44 -36 44 -15 0 -19 -6 -16
-27z"/>
<path d="M4049 743 c-16 -52 -133 -181 -184 -204 -44 -20 -140 -24 -273 -10
-53 5 -76 4 -83 -5 -13 -16 4 -44 46 -73 145 -99 385 -74 478 51 37 50 61 122
52 155 -5 15 -8 30 -8 33 1 3 4 24 8 48 5 34 4 42 -8 42 -9 0 -21 -16 -28 -37z
m19 -75 c1 -42 -4 -76 -16 -103 -22 -51 -90 -115 -146 -136 -60 -24 -132 -34
-141 -19 -5 8 -10 8 -20 0 -10 -8 -27 -9 -57 -2 -38 9 -40 10 -13 12 30 1 30
1 6 11 -16 6 -28 6 -35 -1 -5 -5 -15 -10 -20 -10 -6 0 -4 5 4 11 12 9 11 10
-8 6 -12 -3 -20 -2 -17 3 3 4 -2 11 -11 14 -10 4 -13 2 -8 -7 3 -6 -5 0 -20
15 -46 48 -37 58 52 50 140 -13 203 -8 255 17 47 23 147 112 147 131 0 6 6 10
14 10 7 0 16 14 20 30 3 17 7 30 9 30 1 0 4 -28 5 -62z"/>
<path d="M4042 663 c-7 -2 -17 -14 -23 -25 -8 -15 -8 -19 0 -14 29 18 6 -21
-34 -58 -95 -89 -254 -112 -416 -61 -10 4 -19 2 -19 -4 0 -16 109 -35 193 -34
54 1 96 8 140 24 70 26 127 59 127 74 0 6 9 16 20 23 12 7 18 17 15 22 -3 6
-3 16 2 23 6 10 14 38 10 36 -1 0 -8 -3 -15 -6z"/>
<path d="M3715 420 c-3 -5 -1 -10 4 -10 6 0 11 5 11 10 0 6 -2 10 -4 10 -3 0
-8 -4 -11 -10z"/>
<path d="M2490 747 c0 -31 32 -60 61 -55 32 4 35 26 5 34 -14 3 -28 15 -31 25
-9 27 -35 24 -35 -4z"/>
<path d="M421 736 c-15 -18 -5 -41 26 -55 53 -24 88 20 41 53 -28 20 -52 20
-67 2z m29 -16 c0 -5 7 -6 17 -3 11 4 14 3 9 -5 -10 -17 -33 -15 -40 3 -3 8
-1 15 4 15 6 0 10 -4 10 -10z"/>
<path d="M4150 720 c0 -11 5 -20 10 -20 6 0 10 9 10 20 0 11 -4 20 -10 20 -5
0 -10 -9 -10 -20z"/>
<path d="M3520 722 c0 -16 36 -42 58 -42 27 0 29 26 3 40 -24 12 -61 13 -61 2z"/>
<path d="M0 696 c0 -7 17 -20 38 -28 32 -13 41 -22 49 -54 11 -47 1 -94 -27
-119 -11 -10 -20 -13 -20 -7 0 6 -3 17 -6 25 -4 12 0 14 14 10 43 -11 37 96
-7 124 -14 9 -20 7 -31 -11 -12 -20 -12 -20 5 -6 15 13 19 12 36 -9 11 -13 19
-31 19 -41 0 -28 -11 -51 -21 -44 -5 3 -6 10 -3 16 4 6 1 9 -6 6 -17 -5 -21
-34 -9 -67 8 -24 8 -24 -5 -8 -14 18 -15 17 -21 -3 -10 -30 -2 -34 35 -15 69
36 93 136 45 193 -29 34 -85 59 -85 38z"/>
<path d="M3736 701 c-9 -14 4 -41 19 -41 15 0 28 27 19 41 -3 5 -11 9 -19 9
-8 0 -16 -4 -19 -9z"/>
<path d="M1853 667 c2 -18 7 -38 11 -46 14 -21 1 -22 -22 -1 -12 12 -22 28
-22 38 0 13 -2 14 -8 4 -5 -8 -16 -10 -28 -5 -18 6 -18 6 -2 -10 9 -9 22 -17
28 -17 6 0 9 -4 6 -9 -3 -5 11 -16 32 -25 35 -16 21 -16 -37 0 -17 5 -22 4
-17 -4 4 -7 18 -12 32 -12 17 0 23 -4 18 -12 -5 -8 -2 -9 9 -5 21 8 22 -2 3
-17 -18 -14 -31 -56 -17 -56 6 0 11 5 11 11 0 6 14 29 31 50 30 38 31 46 10
79 -6 8 -12 27 -16 43 -8 38 -26 34 -22 -6z"/>
<path d="M3414 685 c-8 -21 -3 -25 24 -18 13 3 21 11 19 17 -6 18 -37 19 -43
1z"/>
<path d="M1993 673 c-10 -10 -27 -29 -36 -43 l-17 -24 0 22 c0 14 -4 21 -11
16 -6 -3 -9 -19 -5 -35 3 -16 1 -29 -4 -29 -13 0 -32 -77 -25 -100 4 -11 11
-20 16 -20 6 0 8 4 5 9 -3 4 1 17 9 27 14 18 15 17 9 -8 -4 -18 -2 -28 5 -28
6 0 11 11 11 24 0 14 5 28 10 31 7 5 8 11 1 19 -19 23 -2 80 34 112 19 17 35
34 35 38 0 11 -17 6 -37 -11z m-53 -137 c14 -18 13 -19 -2 -13 -11 4 -18 2
-18 -5 0 -6 -3 -9 -6 -5 -3 3 -3 15 1 27 4 12 8 20 9 18 1 -2 8 -12 16 -22z"/>
<path d="M2721 671 c-17 -11 -10 -46 9 -46 17 0 26 33 13 46 -4 4 -14 4 -22 0z"/>
<path d="M4217 666 c-4 -10 -5 -21 -2 -24 9 -9 17 6 13 25 -3 17 -4 17 -11 -1z"/>
<path d="M3793 654 c-3 -8 1 -23 10 -32 15 -14 18 -14 37 3 15 14 17 21 9 32
-16 18 -48 17 -56 -3z"/>
<path d="M286 645 c-8 -8 -19 -15 -25 -15 -6 0 -11 -5 -11 -11 0 -5 -5 -7 -11
-4 -15 10 -47 -23 -69 -68 -19 -38 -17 -61 6 -85 10 -10 10 -18 -4 -42 -9 -16
-20 -30 -24 -30 -5 0 -8 -6 -8 -14 0 -14 48 -41 84 -48 11 -1 21 -9 24 -17 3
-10 0 -12 -12 -8 -9 4 -16 2 -16 -2 0 -5 6 -11 13 -14 8 -3 18 -32 24 -67 8
-49 7 -65 -4 -75 -11 -11 -11 -18 -2 -33 10 -16 9 -28 -4 -61 -21 -51 -21 -51
1 -51 14 0 15 2 2 10 -12 8 -11 10 8 10 12 0 22 -4 22 -9 0 -10 19 -9 36 2 6
3 14 3 18 0 11 -11 36 -12 36 -1 0 7 5 6 14 -1 16 -14 21 -8 31 37 5 23 14 34
32 38 18 5 21 9 12 15 -7 4 -19 3 -26 -3 -10 -8 -13 -7 -13 4 0 22 11 29 26
17 16 -13 77 28 67 45 -3 6 0 5 8 -1 15 -15 59 -18 59 -4 0 4 12 8 28 8 53 0
62 3 62 22 0 11 5 23 10 26 12 8 13 25 1 25 -5 0 -11 -9 -14 -21 -3 -12 -10
-18 -16 -14 -6 3 -11 2 -11 -3 0 -6 -7 -13 -16 -16 -15 -6 -15 -4 -3 11 12 15
12 16 -3 10 -16 -6 -19 -3 -18 21 1 4 12 6 25 4 31 -4 32 6 3 17 -15 5 -26 4
-31 -3 -4 -7 -9 -3 -13 11 -4 14 -11 20 -22 16 -10 -4 -13 -2 -8 5 4 7 3 12
-2 12 -6 0 -13 -7 -16 -16 -3 -8 -2 -12 4 -9 17 11 11 -5 -16 -41 -15 -19 -30
-34 -35 -34 -16 0 -9 22 16 51 13 16 22 36 19 44 -5 12 3 15 32 16 22 1 44 1
50 0 7 -1 26 22 44 50 29 44 34 49 43 33 6 -10 11 -31 11 -46 1 -27 -8 -33
-41 -29 -26 4 -12 -18 15 -22 25 -4 25 -4 -5 -6 -18 0 -33 -5 -33 -10 0 -5 18
-8 41 -6 31 4 39 2 32 -8 -16 -20 -23 -47 -13 -47 17 0 40 56 28 68 -15 15
-20 65 -7 72 6 4 4 18 -5 36 -9 15 -18 48 -22 71 -5 33 -13 47 -35 60 -16 10
-29 21 -29 25 0 4 -8 8 -18 8 -11 0 -24 11 -30 24 -19 42 -56 59 -111 53 -40
-5 -52 -2 -67 14 -21 24 -95 26 -118 4z m67 -26 c-4 -15 0 -25 13 -33 19 -11
68 -17 58 -6 -3 3 -15 5 -26 5 -12 0 -22 7 -24 17 -3 24 17 35 30 16 7 -10 23
-14 44 -12 17 2 32 -1 32 -6 0 -6 7 -10 15 -10 8 0 21 -15 29 -32 9 -20 15
-26 15 -15 1 9 4 17 8 17 12 0 43 -33 43 -46 0 -7 6 -17 13 -21 7 -4 24 -29
36 -55 22 -46 22 -48 5 -78 -13 -22 -23 -28 -37 -24 -10 3 -26 -1 -36 -11 -10
-8 -22 -15 -27 -14 -17 4 -49 -16 -51 -31 -1 -8 -7 -30 -14 -47 -17 -42 -2
-61 32 -42 13 7 31 12 41 11 9 -2 20 2 24 9 4 7 3 9 -2 6 -6 -3 -16 -2 -24 4
-11 6 -12 9 -2 9 7 0 11 4 7 9 -3 5 -1 12 4 15 9 6 24 -22 18 -35 -1 -3 4 -14
12 -23 13 -16 12 -17 -12 -11 -18 5 -27 3 -27 -5 0 -8 -8 -10 -23 -7 -27 7
-40 0 -56 -31 -10 -19 -15 -21 -27 -11 -14 11 -13 15 8 30 12 10 19 21 15 25
-4 4 -7 1 -8 -7 0 -8 -13 12 -28 44 l-28 59 -12 -46 c-6 -24 -11 -55 -10 -68
1 -20 2 -19 11 7 5 17 10 39 9 50 0 20 0 20 15 0 8 -11 13 -29 10 -40 -3 -11
-6 -30 -6 -41 0 -27 -40 -41 -41 -16 0 11 -2 12 -6 5 -14 -35 -31 14 -35 97 0
14 -3 19 -5 11 -4 -11 -7 -11 -13 0 -6 8 4 22 27 41 61 48 110 31 98 -35 -11
-55 10 -52 24 3 7 28 17 52 22 56 5 3 9 12 9 21 0 15 -2 14 -18 0 -10 -10 -22
-14 -27 -10 -4 5 -2 -3 5 -17 l13 -25 -24 22 c-29 25 -66 31 -96 15 -26 -14
-77 -16 -68 -3 3 5 -4 12 -15 16 -11 3 -20 14 -20 23 0 12 -3 14 -8 5 -7 -10
-12 -10 -28 1 -10 8 -16 18 -12 22 4 4 14 1 23 -6 9 -8 15 -8 15 -2 0 6 -4 14
-10 17 -5 3 -10 16 -11 28 0 14 -2 16 -6 7 -13 -40 -27 -60 -34 -49 -8 13 8
47 30 65 12 9 11 14 -7 32 -11 11 -22 18 -24 16 -3 -2 -5 3 -5 11 0 10 4 12
12 5 7 -5 15 -7 18 -3 4 3 7 1 7 -6 0 -7 4 -10 9 -7 5 3 11 -5 13 -19 3 -14 1
-25 -3 -25 -5 0 -6 -7 -3 -15 4 -8 10 -13 14 -10 5 3 6 -5 3 -17 -4 -20 -3
-21 7 -5 11 17 -2 77 -21 101 -4 5 -1 15 7 24 8 8 12 17 9 21 -4 3 -11 -2 -16
-12 -11 -19 -18 -21 -38 -8 -10 7 -11 13 -2 30 7 11 16 21 22 21 5 0 21 12 34
26 20 21 27 24 44 14 15 -7 21 -7 21 0 0 6 10 15 23 20 12 5 23 9 24 9 0 1 -1
-9 -4 -20z m306 -132 c5 -12 7 -25 4 -29 -2 -5 1 -8 8 -8 7 0 10 -2 7 -5 -3
-3 -13 -2 -22 1 -14 5 -15 9 -4 15 10 7 11 9 0 9 -7 0 -10 5 -7 10 3 6 2 10
-2 10 -5 0 -14 9 -21 21 -12 19 -11 19 8 9 12 -6 25 -21 29 -33z m31 -61 c0
-11 -19 -15 -25 -6 -3 5 1 10 9 10 9 0 16 -2 16 -4z m-76 -105 c4 -5 -3 -7
-14 -4 -23 6 -26 13 -6 13 8 0 17 -4 20 -9z m-300 -35 c13 3 15 2 6 -2 -8 -4
-18 -11 -21 -16 -3 -5 -14 1 -25 13 -18 21 -18 22 0 12 10 -6 28 -9 40 -7z
m12 -88 c17 -32 16 -124 -1 -138 -7 -6 -19 -9 -26 -8 -8 2 -13 -3 -11 -11 3
-12 0 -12 -11 -2 -12 9 -16 9 -20 -1 -4 -9 -6 -9 -6 -1 -1 6 4 15 9 18 6 3 10
24 10 46 0 47 8 49 36 9 l21 -30 1 39 c2 33 -3 44 -27 63 -17 13 -32 37 -36
58 l-7 35 27 -25 c15 -14 33 -37 41 -52z m-6 -71 c0 -18 -2 -19 -10 -7 -13 20
-13 43 0 35 6 -3 10 -16 10 -28z m75 -26 c19 -8 19 -8 -3 -20 -19 -10 -22 -9
-23 6 0 16 -1 16 -9 -2 -8 -19 -9 -19 -9 3 -1 23 10 26 44 13z m3 -56 c2 -23
-1 -25 -29 -20 -23 4 -29 2 -23 -7 6 -10 5 -11 -7 -1 -12 10 -18 10 -27 1 -7
-7 -12 -8 -12 -2 0 13 58 46 69 39 5 -3 12 -1 16 5 9 15 10 13 13 -15z"/>
<path d="M340 513 c0 -6 9 -9 20 -6 30 8 32 18 4 18 -13 0 -24 -5 -24 -12z"/>
<path d="M395 509 c-10 -15 3 -25 16 -12 7 7 7 13 1 17 -6 3 -14 1 -17 -5z"/>
<path d="M260 500 c-8 -5 -10 -10 -5 -10 6 0 17 5 25 10 8 5 11 10 5 10 -5 0
-17 -5 -25 -10z"/>
<path d="M299 480 c-2 -26 2 -55 10 -63 4 -4 6 6 3 23 -3 21 0 32 12 36 23 9
20 23 -4 21 -11 -1 -21 -8 -21 -17z"/>
<path d="M344 474 c-4 -15 -10 -21 -13 -15 -12 19 -5 -63 7 -85 6 -12 9 -24 6
-27 -10 -9 7 -28 18 -21 6 4 5 10 -3 15 -10 6 -11 9 -1 9 8 0 12 14 11 43 l-2
42 -7 -40 c-7 -37 -7 -35 -9 23 -1 50 2 62 15 62 8 0 12 5 9 10 -11 18 -24 11
-31 -16z"/>
<path d="M263 483 c-7 -2 -13 -9 -13 -14 0 -6 5 -7 10 -4 6 3 10 -4 10 -17 0
-13 7 -41 14 -63 11 -30 11 -42 3 -47 -7 -5 -2 -8 13 -8 20 0 22 -2 10 -10
-12 -7 -10 -9 7 -7 21 1 21 2 5 20 -9 10 -17 30 -18 44 0 14 -5 28 -11 31 -5
4 -9 24 -8 45 2 37 1 40 -22 30z"/>
<path d="M370 458 c0 -9 4 -20 10 -23 5 -3 8 -26 7 -50 -2 -30 1 -45 10 -45
16 0 26 17 13 25 -13 8 -13 55 0 55 5 0 15 10 21 23 12 22 12 22 -10 3 -23
-21 -23 -21 -39 9 -10 17 -11 17 -12 3z"/>
<path d="M390 461 c0 -5 5 -13 10 -16 6 -3 10 -2 10 4 0 5 -4 13 -10 16 -5 3
-10 2 -10 -4z"/>
<path d="M466 445 c-3 -8 -1 -15 4 -15 6 0 10 7 10 15 0 8 -2 15 -4 15 -2 0
-6 -7 -10 -15z"/>
<path d="M505 449 c-13 -5 -15 -8 -5 -9 27 -1 -23 -24 -55 -25 -25 0 -30 -4
-32 -25 l-2 -25 8 25 c7 19 10 20 11 8 1 -10 3 -24 4 -30 1 -7 -2 -20 -8 -28
-6 -8 2 -4 16 9 25 22 30 50 7 36 -5 -4 -9 -1 -9 5 0 7 7 9 16 6 9 -3 18 -6
20 -6 10 0 2 -29 -11 -40 -9 -7 -13 -15 -10 -18 3 -3 13 3 24 12 18 17 19 16
26 -3 3 -12 11 -21 17 -21 5 0 8 3 6 8 -2 4 -10 20 -18 35 -12 25 -12 30 1 38
10 8 8 9 -10 4 -16 -5 -21 -4 -17 4 4 6 13 11 21 11 7 0 16 7 19 16 8 21 5 23
-19 13z"/>
<path d="M256 384 c-3 -9 -2 -23 4 -32 7 -14 9 -10 10 16 0 35 -5 41 -14 16z"/>
<path d="M536 381 c5 -18 3 -22 -7 -16 -11 6 -12 5 -2 -5 18 -20 28 -4 15 22
l-12 23 6 -24z"/>
<path d="M620 370 c-13 -8 -12 -10 3 -10 9 0 17 5 17 10 0 12 -1 12 -20 0z"/>
<path d="M372 245 c0 -16 2 -22 5 -12 2 9 2 23 0 30 -3 6 -5 -1 -5 -18z"/>
<path d="M352 240 c0 -14 2 -19 5 -12 2 6 2 18 0 25 -3 6 -5 1 -5 -13z"/>
<path d="M276 237 c3 -10 9 -15 12 -12 3 3 0 11 -7 18 -10 9 -11 8 -5 -6z"/>
<path d="M4155 650 c-3 -5 3 -10 14 -10 12 0 21 5 21 10 0 6 -6 10 -14 10 -8
0 -18 -4 -21 -10z"/>
<path d="M819 625 c-36 -20 -50 -63 -34 -102 20 -48 82 -59 129 -22 33 26 34
69 4 103 -29 32 -66 40 -99 21z m41 -17 c0 -9 4 -8 10 2 8 13 12 12 31 -7 27
-26 35 -73 13 -73 -8 0 -12 -4 -9 -10 3 -5 -6 -15 -20 -22 -39 -18 -91 12 -91
53 0 20 5 29 15 29 13 0 13 2 2 9 -11 7 -10 11 5 20 25 14 44 14 44 -1z"/>
<path d="M830 595 c0 -8 4 -15 10 -15 5 0 7 7 4 15 -4 8 -8 15 -10 15 -2 0 -4
-7 -4 -15z"/>
<path d="M877 593 c-12 -11 -8 -23 8 -23 8 0 15 7 15 15 0 16 -12 20 -23 8z"/>
<path d="M810 544 c0 -14 3 -14 15 -4 8 7 15 14 15 16 0 2 -7 4 -15 4 -8 0
-15 -7 -15 -16z"/>
<path d="M846 515 c4 -8 10 -15 15 -15 5 0 9 7 9 15 0 8 -7 15 -15 15 -9 0
-12 -6 -9 -15z"/>
<path d="M2071 626 c-6 -7 -18 -31 -26 -52 -9 -21 -13 -29 -11 -16 2 12 1 20
-4 17 -11 -7 -20 -45 -10 -45 8 0 4 -21 -15 -75 -6 -20 -6 -20 9 -1 15 19 16
19 42 -7 15 -15 34 -27 44 -27 12 0 7 11 -22 40 -44 47 -48 63 -13 54 15 -4
25 -2 25 5 0 6 -9 11 -21 11 -16 0 -19 4 -14 23 4 12 15 34 26 49 10 15 19 30
19 33 0 10 -18 5 -29 -9z"/>
<path d="M3486 624 c-10 -27 -7 -54 7 -54 16 0 36 39 30 58 -6 17 -30 15 -37
-4z m24 -28 c0 -3 -4 -8 -10 -11 -5 -3 -10 -1 -10 4 0 6 5 11 10 11 6 0 10 -2
10 -4z"/>
<path d="M2563 618 c-35 -17 -37 -44 -9 -102 30 -62 132 -186 161 -196 32 -12
65 6 65 35 0 60 -86 201 -150 248 -21 15 -40 27 -42 26 -1 0 -13 -5 -25 -11z
m31 -20 c-3 -4 1 -8 9 -8 8 0 26 -9 41 -21 23 -18 25 -23 14 -37 -11 -13 -10
-15 5 -9 11 4 17 2 17 -8 0 -9 -6 -12 -17 -9 -15 5 -15 4 -3 -4 9 -7 19 -7 26
-2 12 11 24 3 24 -14 0 -6 -5 -4 -10 4 -6 9 -10 10 -10 3 0 -7 6 -16 13 -20
19 -12 58 -83 52 -94 -4 -5 -1 -9 4 -9 6 0 11 -5 11 -11 0 -5 -4 -7 -10 -4 -5
3 -10 -1 -10 -10 0 -12 -6 -15 -22 -10 -13 4 -27 12 -33 18 -7 7 -5 8 5 3 10
-5 9 -3 -2 7 -14 11 -15 16 -5 27 10 10 8 10 -10 1 -18 -9 -20 -8 -16 9 3 13
0 20 -9 20 -16 0 -68 56 -68 74 0 6 5 4 11 -4 9 -13 10 -13 6 0 -2 8 -12 14
-21 14 -9 -1 -16 1 -16 5 0 12 29 47 30 36 0 -15 37 -16 37 -2 0 7 -13 12 -29
13 -15 1 -28 -3 -28 -7 0 -5 -7 -9 -16 -9 -8 0 -12 5 -8 11 3 6 0 16 -7 21
-10 7 -5 8 16 4 24 -5 27 -4 12 4 -20 12 -16 27 7 27 8 0 13 -4 10 -9z"/>
<path d="M2623 496 c3 -8 1 -17 -6 -19 -7 -2 -8 -8 -4 -13 4 -5 12 -2 17 6 8
13 14 8 12 -11 -1 -3 5 -6 13 -6 9 0 7 9 -8 29 -23 31 -32 36 -24 14z"/>
<path d="M2682 433 c2 -9 10 -19 18 -21 12 -4 13 -3 3 10 -7 8 -10 18 -6 21 3
4 1 7 -6 7 -7 0 -11 -8 -9 -17z"/>
<path d="M2716 385 c-3 -8 0 -14 7 -12 7 1 11 -5 9 -13 -2 -8 0 -12 4 -7 4 4
8 16 9 27 2 23 -20 27 -29 5z"/>
<path d="M4357 608 c-24 -17 -32 -19 -54 -9 -35 16 -69 -7 -94 -65 -19 -43
-19 -64 2 -64 6 0 7 5 4 11 -4 5 -4 21 -1 34 6 25 52 85 65 85 10 0 7 -38 -4
-47 -4 -5 -4 -1 0 7 5 9 0 7 -14 -5 -21 -18 -21 -20 -4 -26 30 -12 38 -10 17
6 -13 10 -14 13 -3 10 9 -3 22 1 29 10 9 11 16 12 25 5 10 -8 13 -7 11 5 0 9
11 23 26 32 25 16 29 16 63 0 19 -9 41 -28 47 -42 6 -14 15 -25 19 -25 21 0
-28 63 -61 80 -47 24 -39 24 -73 -2z"/>
<path d="M2004 595 c-8 -13 -13 -29 -9 -36 5 -8 1 -9 -14 -4 -21 6 -30 -8 -12
-20 5 -3 7 -20 4 -39 -3 -19 -1 -36 6 -40 7 -5 11 6 11 33 0 22 5 43 10 46 6
3 10 17 10 31 0 15 6 24 15 24 8 0 15 7 15 15 0 23 -18 18 -36 -10z"/>
<path d="M3606 604 c-34 -19 -23 -37 20 -32 21 2 30 9 32 26 4 26 -11 28 -52
6z m44 -8 c0 -3 -4 -8 -10 -11 -5 -3 -10 -1 -10 4 0 6 5 11 10 11 6 0 10 -2
10 -4z"/>
<path d="M3723 604 c-3 -8 -1 -20 6 -27 14 -14 47 15 37 32 -10 16 -36 13 -43
-5z"/>
<path d="M7 603 c-4 -3 -7 -11 -7 -17 0 -6 5 -5 12 2 17 17 29 15 22 -3 -5
-11 -2 -13 10 -9 13 5 14 9 5 20 -12 15 -31 18 -42 7z"/>
<path d="M1001 581 c-10 -17 -9 -21 3 -21 20 0 31 19 18 32 -7 7 -14 3 -21
-11z"/>
<path d="M1646 567 c-32 -41 -34 -77 -6 -84 11 -3 20 -13 20 -22 0 -10 3 -12
8 -5 4 6 15 10 24 9 26 -5 58 24 58 52 0 33 -36 83 -60 83 -11 0 -30 -15 -44
-33z m84 -46 c0 -9 -9 -22 -20 -29 -15 -9 -20 -9 -20 0 0 6 -3 8 -7 5 -3 -4
-12 1 -20 11 -14 16 -14 16 -9 -1 3 -10 2 -15 -4 -12 -21 13 3 70 26 61 8 -3
13 -2 13 2 -1 4 -1 12 0 17 3 16 41 -35 41 -54z"/>
<path d="M4380 596 c0 -3 10 -21 21 -41 23 -39 39 -42 18 -4 -12 24 -39 54
-39 45z"/>
<path d="M4360 556 c0 -3 9 -20 20 -38 l19 -34 -21 -1 c-13 -1 -31 5 -41 14
-10 10 -37 17 -65 18 -26 1 -41 0 -33 -3 10 -3 10 -6 1 -12 -7 -4 -9 -13 -6
-19 10 -16 26 -14 26 4 0 20 48 19 74 0 11 -8 28 -15 39 -15 11 0 37 -14 58
-31 22 -17 44 -27 50 -23 8 4 9 3 5 -4 -11 -18 -35 -14 -85 14 -37 20 -40 21
-18 4 15 -12 25 -25 22 -30 -7 -11 14 -17 50 -15 17 1 33 -3 37 -9 4 -6 6 8 5
30 -2 27 -11 51 -30 73 -15 18 -27 27 -27 21 0 -6 12 -22 26 -37 14 -14 23
-27 21 -30 -11 -10 -77 44 -86 70 -9 24 -41 67 -41 53z"/>
<path d="M1066 541 c-3 -5 1 -12 10 -15 20 -8 29 -1 19 13 -8 13 -22 14 -29 2z"/>
<path d="M3402 536 c-31 -18 -40 -28 -17 -20 16 6 18 4 8 -6 -10 -10 -15 -11
-27 -1 -16 13 -20 9 -29 -30 l-7 -26 49 11 c27 6 53 15 58 20 5 5 -4 6 -21 2
l-29 -7 32 26 c43 37 32 57 -17 31z"/>
<path d="M1513 514 c-3 -8 -1 -20 6 -27 14 -14 47 15 37 32 -10 16 -36 13 -43
-5z"/>
<path d="M1125 500 c-7 -12 2 -30 16 -30 5 0 9 9 9 20 0 21 -15 27 -25 10z"/>
<path d="M1246 501 c-4 -6 -18 -11 -32 -11 -19 0 -25 -5 -22 -17 2 -12 13 -18
32 -18 33 0 57 28 39 46 -8 8 -13 8 -17 0z"/>
<path d="M1320 490 c0 -13 50 -57 142 -127 56 -42 91 -60 179 -88 138 -43 158
-47 272 -49 50 -1 109 -6 130 -11 26 -5 46 -4 61 4 18 10 32 9 77 -8 64 -25
79 -26 79 -7 0 17 -25 27 -47 19 -12 -5 -14 -3 -8 7 6 10 2 11 -19 6 -17 -4
-25 -3 -22 3 4 5 -4 12 -16 14 l-23 4 23 2 c12 0 25 8 29 17 5 13 7 13 14 2 7
-10 9 -10 9 2 0 12 2 12 9 2 4 -7 27 -14 52 -14 31 0 38 -3 24 -8 -19 -7 -18
-8 5 -12 18 -4 13 -6 -15 -6 -22 -1 -35 2 -28 6 6 4 -7 8 -30 8 l-41 2 46 -18
c52 -20 105 -23 114 -8 4 6 0 16 -9 23 -10 7 -17 17 -17 24 0 6 -9 11 -19 11
-11 0 -23 5 -26 11 -4 6 -19 10 -33 9 -71 -5 -100 0 -104 18 -6 23 -61 32
-182 32 -158 0 -418 45 -498 86 -55 29 -128 53 -128 44z m102 -58 c-1 -8 2
-11 8 -7 5 3 22 -1 37 -9 16 -8 24 -16 18 -16 -5 -1 -1 -5 10 -9 11 -4 20 -16
20 -26 0 -10 7 -21 15 -23 12 -4 13 -3 3 10 -7 8 -10 18 -6 22 4 3 -2 13 -13
22 -17 14 -18 15 -1 10 10 -3 25 -6 33 -6 8 0 14 -5 14 -11 0 -5 -6 -7 -12 -3
-7 4 -3 -3 9 -15 12 -11 26 -21 30 -21 4 0 2 5 -5 12 -17 17 -15 33 3 18 12
-10 15 -10 15 1 0 11 2 11 10 -1 5 -8 25 -14 49 -15 38 0 65 -19 31 -21 -43
-3 -50 -5 -50 -15 0 -6 6 -9 14 -6 8 3 17 3 19 -1 2 -4 2 -1 1 6 -2 6 1 12 5
12 13 0 21 -27 15 -48 -5 -14 -4 -15 5 -2 6 8 8 22 6 31 -3 9 1 22 10 29 13
11 16 8 21 -19 4 -17 9 -29 12 -26 3 2 11 0 18 -6 10 -8 11 -5 7 13 -6 22 -5
22 14 6 25 -23 33 -23 33 0 0 10 3 22 7 25 8 9 33 -25 26 -36 -3 -5 -9 -3 -14
4 -7 11 -9 10 -9 -3 0 -20 15 -24 25 -8 4 6 11 8 16 5 5 -4 9 -1 9 4 0 6 -4
11 -10 11 -5 0 -10 8 -9 18 0 12 2 13 6 3 5 -11 7 -11 14 0 7 12 9 11 9 -1 0
-13 1 -13 10 0 7 12 12 12 22 2 16 -16 48 -16 48 1 0 8 3 8 8 2 4 -6 26 -11
50 -10 23 0 42 -3 42 -7 0 -5 5 -8 11 -8 5 0 7 6 3 13 -4 6 6 0 21 -15 25 -23
27 -30 18 -51 -6 -13 -21 -27 -32 -30 -14 -3 -19 -1 -15 6 3 7 -2 3 -10 -7
-15 -19 -16 -19 -16 -2 0 16 -6 18 -36 13 -20 -4 -46 -1 -57 4 -15 8 -22 8
-28 -2 -7 -11 -9 -11 -9 1 0 11 -2 12 -8 3 -10 -15 -51 -13 -45 2 2 7 -3 12
-12 12 -8 0 -15 -7 -15 -15 0 -11 -9 -12 -42 -7 -24 4 -45 11 -46 16 -2 5 -7
7 -11 5 -9 -6 -177 46 -218 67 -17 9 -42 29 -55 46 -14 16 -34 31 -44 33 -10
2 -18 10 -16 17 1 7 -2 10 -7 7 -5 -4 -13 -1 -16 5 -5 7 1 9 16 7 13 -2 23 -9
21 -16z m374 -78 c15 -4 20 -11 17 -25 -5 -16 -7 -17 -20 -3 -12 11 -18 12
-29 3 -8 -6 -14 -9 -14 -6 0 3 -3 12 -6 21 -7 17 13 21 52 10z"/>
<path d="M1600 361 c0 -5 7 -11 15 -15 8 -3 15 -1 15 3 0 5 -7 11 -15 15 -8 3
-15 1 -15 -3z"/>
<path d="M1987 314 c-3 -4 -19 -7 -33 -8 -15 -1 -30 -8 -32 -16 -4 -13 -3 -13
10 -2 13 10 17 10 22 0 4 -9 8 -9 11 -2 3 6 17 9 30 6 15 -2 25 0 25 7 0 7 -4
10 -9 7 -5 -4 -11 -1 -13 5 -2 5 -7 7 -11 3z"/>
<path d="M1890 301 c0 -5 5 -13 10 -16 6 -3 10 -2 10 4 0 5 -4 13 -10 16 -5 3
-10 2 -10 -4z"/>
<path d="M2088 303 c-10 -2 -18 -9 -18 -14 0 -14 16 -11 30 6 7 8 11 14 9 14
-2 -1 -12 -3 -21 -6z"/>
<path d="M1005 480 c-3 -5 -14 -10 -24 -10 -23 0 -33 -34 -17 -53 6 -8 29 -21
51 -28 38 -13 38 -14 13 -17 -45 -5 -32 -22 17 -22 44 0 44 0 39 -29 -6 -26
-1 -32 52 -68 33 -22 111 -65 174 -95 70 -34 139 -76 175 -107 60 -51 94 -69
60 -31 -21 23 -4 27 19 4 9 -8 16 -10 16 -4 0 6 -7 13 -15 16 -8 4 -15 10 -15
16 0 5 6 6 13 2 9 -5 9 -3 -1 7 -11 12 -14 12 -22 -1 -5 -8 -10 -12 -11 -7 -7
34 -20 69 -26 64 -2 -3 0 -14 6 -25 15 -28 -8 -35 -38 -11 -13 11 -20 19 -17
19 4 0 2 9 -4 20 -11 21 -30 27 -30 9 0 -5 5 -7 10 -4 6 3 10 1 10 -5 0 -7 -6
-10 -12 -7 -14 5 -15 21 -2 52 7 18 6 18 -9 6 -9 -7 -17 -21 -18 -30 0 -10 -2
-11 -6 -3 -2 6 -11 12 -19 12 -8 0 -11 7 -8 18 5 15 4 15 -6 2 -8 -11 -13 -12
-16 -3 -3 7 -11 10 -18 7 -7 -3 -19 3 -27 12 -12 16 -12 17 5 11 16 -6 17 -5
6 8 -7 8 -17 12 -22 9 -5 -3 -9 0 -7 7 1 8 1 21 0 29 -1 13 -3 13 -10 1 -6 -8
-6 -24 0 -38 10 -27 -5 -32 -19 -6 -7 11 -6 25 1 40 7 17 7 27 0 34 -12 12
-33 4 -33 -13 0 -6 7 -5 16 3 15 12 16 11 9 -11 -4 -14 -12 -27 -16 -28 -5 -2
-7 -9 -3 -15 3 -7 -2 -3 -10 7 -9 11 -16 25 -16 30 0 6 -5 4 -10 -4 -7 -11
-10 -11 -10 -2 0 8 -5 10 -12 6 -8 -5 -7 0 2 11 8 10 10 16 3 12 -6 -4 -14 -1
-16 5 -3 7 -6 4 -6 -7 -1 -17 -4 -16 -28 10 -28 30 -28 30 -8 47 12 10 15 17
8 18 -7 0 -13 -5 -13 -12 0 -6 -3 -9 -6 -5 -11 10 7 47 28 58 19 10 20 9 16
-15 -3 -14 -1 -23 3 -20 5 3 9 11 9 19 0 20 23 24 55 10 17 -7 26 -14 20 -15
-5 0 5 -7 22 -15 25 -11 31 -18 26 -32 -5 -14 -4 -16 8 -7 20 15 94 -27 77
-44 -7 -7 -8 -12 -2 -12 6 0 15 5 20 10 7 7 17 5 30 -6 10 -8 14 -13 7 -10 -6
4 -14 2 -18 -4 -3 -5 1 -10 10 -10 10 0 13 -5 9 -12 -4 -7 -3 -8 5 -4 6 4 9
12 6 17 -9 14 9 11 31 -6 19 -15 19 -15 -1 -8 -11 3 -17 3 -13 -2 4 -4 18 -8
30 -9 18 -1 23 -7 23 -27 -1 -18 5 -25 19 -27 17 -1 18 1 6 8 -8 5 -10 10 -4
10 17 0 95 -71 88 -81 -3 -5 2 -9 11 -9 9 0 21 -14 27 -30 5 -17 15 -29 22
-27 16 6 48 -12 41 -24 -4 -5 6 -9 21 -9 l27 0 -29 22 c-16 12 -72 63 -125
113 -60 56 -126 107 -175 134 -43 25 -112 67 -152 93 -62 42 -80 49 -114 46
-36 -2 -44 2 -72 33 -32 37 -80 57 -91 39z m59 -43 c15 -10 25 -21 22 -24 -3
-4 0 -13 7 -21 10 -13 9 -15 -6 -9 -10 4 -23 7 -28 7 -6 0 -7 5 -4 10 6 9 2
11 -35 14 -8 1 -14 8 -12 15 2 9 -4 12 -17 8 -13 -3 -18 -1 -15 8 7 18 55 13
88 -8z m456 -387 c0 -5 -2 -10 -4 -10 -3 0 -8 5 -11 10 -3 6 -1 10 4 10 6 0
11 -4 11 -10z"/>
<path d="M1030 440 c35 -24 54 -31 30 -11 -14 11 -29 21 -35 21 -5 0 -3 -5 5
-10z"/>
<path d="M1555 470 c-4 -6 -1 -17 5 -26 14 -16 40 -2 40 22 0 16 -36 19 -45 4z"/>
<path d="M2483 470 c26 -66 30 -92 18 -112 -11 -17 -10 -22 1 -29 7 -5 14 -4
16 1 2 6 8 8 12 5 11 -7 7 36 -5 54 -5 10 -4 12 3 7 17 -10 15 10 -3 28 -8 8
-15 19 -15 24 0 5 -7 16 -17 23 -14 12 -15 12 -10 -1z"/>
<path d="M1800 456 c-7 -9 -10 -23 -6 -31 11 -29 60 -10 54 21 -4 24 -31 29
-48 10z"/>
<path d="M4193 463 c-17 -2 -37 -11 -43 -19 -7 -8 -18 -14 -25 -14 -15 0 -65
-56 -65 -71 0 -6 -7 -17 -16 -26 -10 -10 -14 -29 -12 -57 3 -38 5 -41 31 -41
24 1 27 -2 22 -20 -12 -36 -7 -55 21 -84 23 -24 32 -28 65 -24 36 5 38 3 58
-35 26 -50 41 -59 112 -64 50 -4 56 -2 51 14 -3 13 -14 18 -38 18 -24 0 -45
10 -71 33 -21 19 -47 39 -58 46 -19 12 -19 12 3 8 12 -3 20 -1 16 4 -3 5 0 9
7 9 7 0 5 6 -6 13 -11 9 -14 16 -7 21 6 3 23 -5 39 -18 20 -17 33 -22 44 -15
11 5 29 2 53 -11 30 -15 35 -15 24 -2 -10 12 -8 12 15 -2 24 -16 41 -36 18
-22 -5 4 -20 2 -33 -3 l-23 -10 23 0 c13 -1 40 -12 60 -26 32 -22 37 -23 41
-9 1 10 -3 21 -11 25 -8 5 -37 26 -63 48 -40 33 -51 38 -64 28 -12 -9 -13 -9
-7 0 4 7 3 13 -3 13 -5 0 -14 12 -20 28 -8 20 -10 21 -7 5 8 -42 -13 -24 -28
25 -13 38 -15 40 -11 12 3 -21 2 -31 -4 -25 -5 6 -12 25 -15 44 -2 18 -10 39
-17 45 -9 8 -9 6 0 -11 8 -16 8 -23 -2 -26 -9 -4 -9 -6 1 -6 6 -1 12 -9 12
-19 0 -10 5 -23 12 -30 16 -16 -4 -16 -22 1 -11 9 -11 8 0 -7 14 -18 13 -19
-5 -12 -11 4 -16 4 -12 0 4 -4 2 -14 -5 -21 -9 -11 -9 -16 1 -22 18 -12 -53
-24 -89 -16 -15 3 -31 14 -34 23 -3 9 -9 24 -12 32 -4 11 -3 12 4 2 6 -9 9 -3
9 18 0 17 7 38 16 48 16 15 18 15 32 -3 12 -17 14 -17 15 -4 0 18 -20 29 -51
29 -11 0 -17 5 -14 10 4 6 3 10 -2 9 -23 -4 -23 4 3 39 15 20 28 38 29 40 7 9
35 -13 33 -26 -2 -10 5 -17 17 -19 11 -1 14 0 8 3 -7 3 -13 10 -13 15 0 6 6 7
13 3 6 -4 -1 6 -18 22 l-30 29 -22 -23 c-13 -13 -23 -26 -23 -31 0 -4 -7 -8
-15 -8 -19 0 -19 7 0 34 18 26 86 67 82 50 -1 -7 6 -11 16 -9 15 3 17 0 8 -17
-9 -16 -7 -21 9 -26 11 -4 18 -10 16 -14 -3 -4 0 -13 6 -21 8 -12 9 -12 4 3
-5 16 8 25 17 10 2 -5 2 -3 1 4 -6 23 15 24 27 2 9 -17 13 -19 20 -8 10 16 25
4 32 -26 3 -15 5 -13 6 8 1 26 -9 36 -41 41 -7 1 -18 5 -25 9 -6 4 -14 3 -18
-3 -3 -5 -11 -10 -16 -10 -6 0 -7 4 -4 10 4 6 -1 7 -10 3 -13 -4 -16 -1 -13
13 2 12 13 19 33 21 17 2 35 4 40 4 6 1 19 -2 30 -6 16 -7 18 -6 8 5 -7 8 -36
14 -68 15 -63 2 -88 15 -28 15 67 0 103 -11 134 -42 31 -32 40 -59 12 -37 -16
13 -17 12 -4 -3 7 -10 18 -15 23 -12 6 4 8 -2 4 -14 -5 -14 -1 -24 11 -30 17
-10 17 -11 0 -29 -19 -22 -21 -41 -7 -63 8 -11 9 -9 5 11 -4 17 0 33 12 48 18
22 18 22 15 -24 -4 -46 13 -105 29 -105 12 0 7 21 -8 38 -7 7 -13 24 -13 37 0
19 4 23 18 18 15 -6 16 -5 2 12 -8 10 -13 28 -12 41 2 13 -1 24 -6 24 -6 0
-24 24 -41 54 -25 44 -38 57 -73 69 -54 20 -85 24 -125 20z m217 -138 c11 -13
10 -14 -4 -9 -9 3 -16 10 -16 15 0 13 6 11 20 -6z m-340 -15 c0 -10 9 -24 20
-30 11 -6 20 -15 20 -20 0 -15 -40 -6 -51 11 -7 11 -9 10 -9 -5 0 -11 -2 -17
-5 -15 -2 3 -2 22 2 42 6 39 23 51 23 17z m222 -117 c-19 -8 -4 -23 24 -23 14
0 22 -4 19 -10 -10 -16 -41 -12 -59 9 -17 19 -10 29 19 29 6 0 4 -2 -3 -5z
m-32 -125 c0 -10 3 -17 8 -14 4 2 18 -2 32 -9 l25 -14 -30 3 c-21 2 -34 12
-47 34 -14 25 -14 30 -3 25 8 -3 15 -14 15 -25z m230 -5 c0 -7 -39 17 -46 28
-3 6 5 3 20 -6 14 -10 26 -19 26 -22z m-114 -42 c-3 -5 -15 -7 -26 -4 -28 7
-25 13 6 13 14 0 23 -4 20 -9z"/>
<path d="M2150 436 c0 -11 9 -16 26 -16 31 0 28 23 -4 28 -15 2 -22 -2 -22
-12z"/>
<path d="M2325 426 c-20 -15 -15 -46 8 -46 17 0 67 38 67 51 0 14 -54 11 -75
-5z"/>
<path d="M3280 431 c0 -11 26 -22 34 -14 3 3 3 10 0 14 -7 12 -34 11 -34 0z"/>
<path d="M806 411 c-23 -25 -17 -55 12 -59 30 -4 64 26 60 52 -4 29 -49 33
-72 7z m40 -26 c-22 -17 -38 -11 -29 11 5 13 7 13 14 2 8 -13 13 -4 9 17 -1 6
5 4 12 -3 11 -11 10 -16 -6 -27z"/>
<path d="M2230 404 c-12 -30 -6 -44 20 -44 21 0 31 20 23 49 -7 29 -31 26 -43
-5z"/>
<path d="M3230 405 c-17 -21 -8 -28 15 -11 11 8 14 15 8 19 -6 4 -16 0 -23 -8z"/>
<path d="M2484 400 c-6 -6 -23 -11 -40 -13 -16 -2 -39 -9 -52 -16 -26 -14 -31
-44 -5 -34 11 4 14 3 9 -5 -10 -17 0 -15 18 4 11 11 16 12 16 3 0 -7 7 -5 16
7 8 10 12 13 8 5 -5 -9 -3 -12 4 -7 7 4 12 12 12 18 0 6 8 17 17 24 10 7 15
15 12 18 -3 3 -10 1 -15 -4z m-59 -30 c-3 -5 -12 -10 -18 -10 -7 0 -6 4 3 10
19 12 23 12 15 0z"/>
<path d="M3 378 c0 -13 9 -30 19 -39 20 -18 14 -30 -10 -23 -10 3 -7 -1 6 -7
12 -7 22 -16 22 -21 0 -5 -5 -6 -12 -2 -8 5 -9 2 -4 -11 4 -10 3 -21 -2 -24
-5 -3 -12 -18 -16 -34 -6 -25 -5 -27 13 -15 14 8 21 28 26 68 5 47 3 62 -15
93 -26 43 -29 45 -27 15z"/>
<path d="M3351 389 c-75 -9 -102 -30 -137 -104 -65 -137 19 -260 176 -260 113
1 182 56 196 158 9 62 -2 111 -33 147 -47 56 -99 71 -202 59z m116 -25 c8 -8
21 -14 29 -14 22 0 50 -33 46 -55 -3 -11 -1 -16 4 -12 4 4 14 -11 20 -34 16
-54 -3 -110 -54 -156 -41 -38 -43 -39 -36 -16 3 10 -2 6 -11 -9 -14 -26 -20
-28 -73 -27 -31 1 -61 4 -67 7 -5 4 -17 7 -25 9 -8 1 -16 7 -18 12 -2 6 -10
11 -17 11 -7 0 -20 12 -30 26 -9 15 -12 23 -6 19 8 -5 10 2 6 22 -6 27 -6 27
9 9 18 -23 20 -36 6 -36 -5 0 -7 -7 -4 -15 11 -28 19 -15 20 30 0 25 -2 41 -6
35 -9 -15 -22 17 -14 33 3 7 -2 3 -10 -7 -16 -19 -16 -19 -16 2 0 12 4 22 9
22 5 0 7 9 4 20 -3 11 0 26 6 34 9 11 9 15 -1 19 -8 3 -3 9 14 17 14 7 24 18
22 25 -12 31 164 58 193 29z m-249 -215 c-3 -8 -7 -3 -11 10 -4 17 -3 21 5 13
5 -5 8 -16 6 -23z"/>
<path d="M3365 340 c-4 -6 -10 -8 -15 -5 -4 3 -8 -1 -7 -8 1 -30 -4 -48 -11
-43 -4 2 -14 0 -22 -5 -12 -8 -9 -9 10 -7 14 1 31 -1 38 -6 11 -7 12 -4 4 11
-7 12 -7 25 -1 34 6 10 9 10 10 2 4 -37 20 -64 43 -73 29 -10 46 -2 46 24 0
16 -2 18 -9 7 -5 -8 -14 -10 -21 -6 -9 5 -11 4 -6 -3 4 -7 2 -12 -3 -12 -6 0
-11 5 -11 11 0 6 -7 17 -15 25 -8 9 -15 25 -15 37 0 17 2 19 9 7 6 -8 7 -18 4
-24 -4 -5 1 -7 11 -3 10 4 24 7 32 7 8 0 14 7 14 15 0 8 -5 15 -11 15 -5 0 -7
-4 -4 -10 3 -5 -3 -10 -14 -10 -12 0 -21 7 -21 15 0 17 -25 20 -35 5z"/>
<path d="M3410 290 c0 -5 6 -10 14 -10 8 0 18 5 21 10 3 6 -3 10 -14 10 -12 0
-21 -4 -21 -10z"/>
<path d="M3525 220 c3 -5 8 -10 11 -10 2 0 4 5 4 10 0 6 -5 10 -11 10 -5 0 -7
-4 -4 -10z"/>
<path d="M3535 206 c-12 -12 -19 -31 -17 -44 4 -29 22 -18 22 14 0 14 4 23 9
20 5 -3 11 1 15 9 8 23 -7 23 -29 1z"/>
<path d="M3451 200 c0 -8 7 -31 14 -50 9 -25 14 -29 14 -14 1 11 7 26 14 33
10 10 9 11 -4 6 -10 -4 -19 2 -27 17 -6 13 -11 16 -11 8z"/>
<path d="M3316 173 c-6 -14 -5 -15 5 -6 7 7 10 15 7 18 -3 3 -9 -2 -12 -12z"/>
<path d="M3286 125 c-9 -26 -7 -32 5 -12 6 10 9 21 6 23 -2 3 -7 -2 -11 -11z"/>
<path d="M3306 114 c-8 -21 -8 -34 2 -34 4 0 8 11 8 25 2 29 -1 32 -10 9z"/>
<path d="M3422 105 c0 -16 2 -22 5 -12 2 9 2 23 0 30 -3 6 -5 -1 -5 -18z"/>
<path d="M3332 90 c0 -14 2 -19 5 -12 2 6 2 18 0 25 -3 6 -5 1 -5 -13z"/>
<path d="M3363 95 c-3 -9 -3 -18 -1 -21 3 -3 8 4 11 16 6 23 -1 27 -10 5z"/>
<path d="M3387 96 c-11 -27 -8 -36 8 -36 16 0 17 5 6 34 -7 18 -8 18 -14 2z"/>
<path d="M3440 101 c0 -6 5 -13 10 -16 6 -3 10 1 10 9 0 9 -4 16 -10 16 -5 0
-10 -4 -10 -9z"/>
<path d="M2918 373 c-37 -23 -55 -59 -41 -81 16 -26 38 -26 98 2 45 21 55 29
55 50 0 45 -61 60 -112 29z m90 -5 c17 -14 15 -35 -3 -42 -12 -4 -14 0 -9 19
5 20 2 25 -12 25 -15 0 -16 -2 -5 -9 9 -6 10 -11 3 -15 -6 -4 -8 -14 -5 -23 5
-14 1 -15 -28 -10 -21 5 -29 4 -20 -2 11 -7 9 -10 -8 -16 -23 -7 -41 0 -41 17
0 5 7 7 16 4 14 -5 15 -4 5 8 -9 11 -8 15 3 19 8 3 16 1 18 -4 2 -6 11 -4 22
4 15 11 16 16 6 22 -9 5 -11 4 -6 -3 4 -7 2 -12 -3 -12 -11 0 -15 13 -7 21 9
9 62 7 74 -3z"/>
<path d="M3581 377 c-8 -11 -5 -19 12 -35 34 -31 57 -33 57 -4 0 11 -39 52
-49 52 -5 0 -14 -6 -20 -13z"/>
<path d="M3971 367 c-6 -14 -24 -33 -41 -42 -17 -9 -28 -20 -25 -25 3 -5 -3
-15 -15 -22 -24 -15 -25 -24 -6 -31 11 -4 13 -1 9 10 -4 11 -2 14 5 9 7 -4 12
-1 12 6 0 8 6 23 14 33 13 18 14 18 24 -2 12 -22 -3 -98 -17 -88 -10 5 -2 58
10 65 4 3 4 11 0 19 -5 8 -13 -2 -23 -33 -8 -25 -11 -46 -6 -46 5 0 7 -10 3
-22 -6 -21 -4 -21 19 5 26 29 34 21 16 -14 -6 -10 -7 -19 -3 -19 5 0 16 15 26
33 16 29 16 36 4 67 -13 29 -13 39 -1 73 16 44 11 66 -5 24z m7 -138 c-3 -8
-7 -3 -11 10 -4 17 -3 21 5 13 5 -5 8 -16 6 -23z"/>
<path d="M1178 360 c-10 -9 -18 -20 -18 -25 0 -4 8 -1 18 7 9 9 24 17 31 20
13 4 13 5 0 10 -7 3 -22 -2 -31 -12z"/>
<path d="M3157 363 c-10 -16 11 -39 23 -27 8 8 7 14 -4 23 -8 7 -17 8 -19 4z"/>
<path d="M3734 353 c4 -4 -8 -13 -26 -19 -19 -7 -25 -13 -15 -13 10 -1 27 4
38 9 14 8 24 8 37 0 16 -11 16 -11 -1 -6 -11 4 -31 -3 -48 -15 -34 -24 -38
-39 -7 -31 13 3 19 1 15 -5 -7 -11 72 2 83 14 3 3 -9 2 -26 -1 -16 -4 -41 -3
-55 3 l-24 9 25 6 c39 10 88 3 86 -12 -3 -18 -26 -32 -53 -32 -24 0 -28 -7
-15 -28 7 -9 13 -8 27 8 10 11 21 17 26 14 4 -2 13 5 19 16 6 12 26 30 43 41
l32 20 -47 -7 c-39 -5 -52 -3 -74 15 -25 19 -57 30 -40 14z"/>
<path d="M4342 335 c0 -16 2 -22 5 -12 2 9 2 23 0 30 -3 6 -5 -1 -5 -18z"/>
<path d="M813 174 c-42 -88 -78 -161 -80 -164 -2 -3 7 -6 19 -7 13 -1 18 1 11
5 -7 5 0 27 23 72 18 36 33 61 33 55 0 -5 -6 -21 -14 -35 -8 -14 -14 -29 -14
-35 0 -5 9 7 20 28 11 21 17 42 14 46 -8 14 6 42 18 34 6 -4 8 0 4 11 -4 10 1
24 13 36 11 11 20 32 20 46 0 17 4 23 12 18 8 -5 9 -2 5 11 -4 9 7 2 25 -16
22 -22 32 -43 31 -59 -2 -17 0 -21 6 -11 7 11 10 11 17 -2 5 -9 14 -16 19 -16
6 -1 10 -7 10 -13 1 -7 6 -12 13 -11 7 2 12 -2 12 -7 0 -22 2 -25 23 -33 16
-6 18 -10 9 -16 -10 -6 -10 -11 3 -21 13 -11 15 -10 9 6 -4 12 3 8 19 -11 24
-28 24 -31 9 -49 -10 -10 -26 -22 -37 -27 -19 -7 -19 -8 -1 -8 11 -1 30 8 42
20 25 23 53 17 33 -7 -14 -17 2 -19 18 -3 9 9 -19 46 -107 148 -176 203 -146
201 -237 15z"/>
<path d="M1177 323 c-10 -9 -9 -23 1 -23 5 0 9 7 9 15 0 17 -1 18 -10 8z"/>
<path d="M1136 303 c-6 -14 -5 -15 5 -6 7 7 10 15 7 18 -3 3 -9 -2 -12 -12z"/>
<path d="M4362 290 c0 -14 2 -19 5 -12 2 6 2 18 0 25 -3 6 -5 1 -5 -13z"/>
<path d="M4455 303 c6 -4 11 -25 11 -46 0 -29 -3 -36 -14 -32 -12 4 -12 2 -4
-8 7 -8 11 -16 9 -18 -1 -2 3 2 10 9 7 8 17 11 25 6 10 -6 10 -5 0 9 -8 9 -14
31 -15 48 -1 19 -8 34 -17 36 -9 3 -11 1 -5 -4z"/>
<path d="M2538 284 c-16 -8 -28 -19 -28 -24 0 -6 -10 -10 -22 -10 -41 0 -85
-35 -91 -72 -3 -18 -9 -48 -13 -66 -5 -26 -2 -40 15 -62 11 -16 21 -34 21 -40
0 -5 7 -10 15 -10 17 0 20 16 5 25 -6 4 -7 11 -4 17 5 8 1 9 -11 4 -18 -6 -18
-6 1 15 10 12 13 19 7 15 -8 -4 -13 -2 -14 6 0 7 -4 4 -9 -7 -5 -11 -9 -15
-10 -10 -1 6 -3 18 -5 28 -2 10 1 14 8 10 7 -4 8 0 4 13 -6 14 -2 13 14 -6 15
-18 18 -20 11 -5 -5 11 -7 26 -5 33 3 7 -1 10 -10 6 -11 -4 -13 1 -9 23 10 58
67 89 105 56 11 -10 17 -13 14 -6 -8 12 10 29 20 19 9 -8 -18 -96 -28 -91 -12
8 -2 -64 11 -80 16 -19 64 -19 80 0 8 10 21 13 34 9 20 -6 20 -6 4 13 -24 26
-23 46 1 38 11 -3 22 -1 26 5 4 6 -7 10 -28 10 -49 0 -64 21 -41 58 9 17 14
37 11 46 -7 19 -38 21 -54 5 -9 -9 -12 -7 -10 8 1 17 8 21 39 21 21 1 36 -3
34 -7 -6 -10 54 -72 63 -67 4 3 6 -8 5 -25 -1 -21 3 -29 14 -30 13 0 13 -2 -3
-9 -11 -5 -15 -9 -8 -9 7 -1 10 -10 8 -22 -3 -15 0 -19 10 -15 10 4 15 -1 15
-14 0 -11 -5 -20 -11 -20 -5 0 -7 4 -4 10 3 5 2 10 -4 10 -5 0 -13 -5 -16 -10
-3 -6 -1 -10 6 -10 8 0 6 -7 -5 -19 -15 -17 -15 -19 0 -31 13 -12 17 -11 25 1
16 25 22 82 11 99 -6 10 -8 27 -6 38 8 28 -18 72 -65 115 -45 41 -78 46 -123
21z m2 -29 c-7 -9 -15 -13 -17 -11 -7 7 7 26 19 26 6 0 6 -6 -2 -15z m145 -33
c-3 -3 -18 7 -33 23 l-27 28 33 -23 c18 -12 31 -25 27 -28z m-75 14 c0 -1 -9
-19 -20 -40 -17 -34 -17 -40 -4 -53 19 -19 13 -37 -12 -41 -10 -2 -23 -9 -29
-14 -7 -7 -3 -9 13 -5 12 3 20 1 17 -3 -3 -5 1 -11 7 -13 7 -3 0 -5 -16 -4
-20 1 -31 9 -38 27 -6 16 -6 26 1 28 6 2 13 19 17 38 3 19 15 39 25 45 22 12
26 31 4 23 -14 -6 -21 7 -9 18 4 5 44 -1 44 -6z m10 -146 c0 -5 -4 -10 -10
-10 -5 0 -10 5 -10 10 0 6 5 10 10 10 6 0 10 -4 10 -10z m91 -67 c-8 -15 -10
-15 -11 -2 0 17 10 32 18 25 2 -3 -1 -13 -7 -23z"/>
<path d="M2550 120 c-14 -11 -20 -20 -15 -19 13 0 50 28 44 33 -2 3 -15 -4
-29 -14z"/>
<path d="M94 255 c-4 -8 -4 -21 -1 -29 3 -8 -2 -16 -14 -19 -20 -6 -26 -36 -9
-53 8 -8 6 -15 -5 -24 -22 -18 -19 -47 7 -61 20 -11 26 -8 54 25 17 20 36 36
42 36 34 0 43 89 12 120 -24 24 -78 27 -86 5z m41 -53 c-8 -8 -26 39 -19 50 5
8 11 1 16 -17 4 -16 6 -31 3 -33z m18 41 c-4 -10 -2 -14 4 -10 6 4 16 1 22 -7
13 -15 5 -46 -13 -46 -7 0 -6 -4 3 -9 8 -5 9 -11 3 -15 -14 -8 -18 0 -26 57
-5 30 -4 47 3 47 6 0 7 -7 4 -17z m-17 -67 c15 -23 14 -27 -7 -55 -27 -37 -40
-43 -58 -24 -11 12 -10 15 8 20 22 6 27 18 11 28 -5 3 -10 17 -10 31 0 32 34
32 56 0z"/>
<path d="M160 209 c0 -5 5 -7 10 -4 6 3 10 8 10 11 0 2 -4 4 -10 4 -5 0 -10
-5 -10 -11z"/>
<path d="M97 177 c-3 -8 3 -14 16 -15 12 0 17 2 12 6 -6 4 -13 11 -16 15 -4 4
-9 2 -12 -6z"/>
<path d="M88 103 c7 -3 16 -2 19 1 4 3 -2 6 -13 5 -11 0 -14 -3 -6 -6z"/>
<path d="M1030 255 c0 -8 15 -31 33 -51 27 -30 35 -34 45 -22 9 11 6 22 -14
51 -25 38 -64 51 -64 22z"/>
<path d="M3020 250 c-6 -11 -19 -20 -30 -20 -35 0 -32 -20 10 -75 47 -61 66
-72 90 -50 9 8 24 15 34 15 12 0 16 6 14 23 -2 12 -9 21 -16 19 -8 -1 -11 2
-7 8 8 13 -52 100 -70 100 -8 0 -19 -9 -25 -20z m60 -32 c0 -5 -11 -1 -24 9
-13 10 -22 22 -19 26 6 9 43 -21 43 -35z m-13 -15 c15 -16 22 -21 18 -13 -8
13 -6 13 7 2 9 -8 14 -20 11 -29 -3 -8 0 -19 8 -25 10 -7 6 -8 -14 -3 -19 4
-26 2 -22 -5 3 -5 -1 -10 -11 -10 -13 0 -14 3 -5 14 13 16 4 44 -27 79 -26 29
6 20 35 -10z m-27 -17 c8 -17 9 -29 2 -42 -9 -16 -10 -16 -21 4 -6 11 -18 28
-28 37 -13 14 -14 18 -3 25 18 11 35 3 50 -24z"/>
<path d="M3630 241 c0 -16 7 -34 15 -41 12 -10 16 -8 25 15 16 42 12 55 -15
55 -21 0 -25 -5 -25 -29z"/>
<path d="M1596 237 c-18 -13 -18 -14 -1 -21 22 -8 44 9 29 24 -7 7 -16 6 -28
-3z"/>
<path d="M2800 232 c0 -21 67 -130 94 -152 45 -36 129 -45 93 -9 -7 8 -19 29
-25 47 -18 52 -70 112 -97 112 -13 0 -27 5 -30 10 -10 17 -35 11 -35 -8z m100
-57 c10 -6 8 -1 -4 13 -11 12 -16 22 -13 22 9 0 67 -80 67 -91 0 -5 -7 -6 -15
-3 -8 4 -12 11 -8 17 4 6 1 7 -7 2 -10 -6 -7 -13 13 -29 15 -12 27 -28 27 -35
0 -9 -4 -8 -16 3 -8 9 -22 16 -29 16 -22 0 -98 112 -83 121 7 5 21 1 33 -10
11 -10 27 -22 35 -26z"/>
<path d="M2840 199 c0 -8 12 -26 27 -40 19 -16 23 -18 12 -4 -9 11 -21 29 -27
40 -9 15 -11 16 -12 4z"/>
<path d="M915 230 c-3 -5 -2 -10 4 -10 5 0 13 5 16 10 3 6 2 10 -4 10 -5 0
-13 -4 -16 -10z"/>
<path d="M1326 231 c-5 -7 -3 -18 3 -24 6 -6 11 -7 11 -1 0 5 5 2 10 -6 7 -12
9 -10 7 7 0 12 -4 20 -8 17 -4 -2 -9 1 -11 8 -3 9 -6 9 -12 -1z"/>
<path d="M1657 233 c-13 -12 -7 -23 13 -23 13 0 18 5 14 15 -7 16 -17 19 -27
8z"/>
<path d="M2470 221 c0 -5 -6 -8 -12 -7 -7 0 -13 -3 -13 -9 -1 -13 26 -7 45 11
12 12 12 14 -3 14 -9 0 -17 -4 -17 -9z"/>
<path d="M1377 214 c-12 -12 -8 -26 5 -18 8 5 9 2 5 -9 -10 -25 7 -28 27 -5
15 18 16 20 2 15 -9 -4 -19 0 -24 9 -4 8 -11 11 -15 8z"/>
<path d="M864 185 c11 -8 22 -12 25 -9 6 6 -19 24 -34 24 -5 -1 -1 -7 9 -15z"/>
<path d="M3720 193 c-35 -15 -79 -56 -89 -85 -6 -17 -10 -49 -10 -72 1 -25 3
-31 6 -16 2 14 9 45 15 69 10 40 13 42 25 25 7 -10 13 -13 13 -8 0 6 -5 15
-11 21 -15 15 49 53 88 53 67 0 139 -82 129 -148 -3 -17 -1 -32 5 -32 5 0 9
20 9 44 0 47 -27 96 -70 128 -27 20 -86 31 -110 21z"/>
<path d="M2420 175 c0 -9 5 -15 11 -13 6 2 11 8 11 13 0 5 -5 11 -11 13 -6 2
-11 -4 -11 -13z"/>
<path d="M2503 175 c0 -8 4 -12 9 -9 4 3 8 9 8 15 0 5 -4 9 -8 9 -5 0 -9 -7
-9 -15z"/>
<path d="M4200 179 c0 -5 5 -7 10 -4 6 3 10 8 10 11 0 2 -4 4 -10 4 -5 0 -10
-5 -10 -11z"/>
<path d="M1760 173 c0 -7 115 -147 133 -161 12 -10 16 -10 20 2 6 15 -29 53
-39 43 -10 -10 -43 37 -41 59 2 13 -3 18 -17 16 -10 -2 -15 1 -12 6 3 6 0 13
-6 15 -7 3 -4 6 7 6 27 1 55 -22 56 -45 0 -10 3 -14 5 -7 3 7 12 9 20 6 10 -4
12 0 8 11 -3 9 -11 13 -18 9 -6 -3 -7 -2 -3 2 11 12 37 15 37 4 0 -5 8 -8 18
-7 9 1 30 0 46 0 28 -2 28 -3 13 -20 -19 -21 -23 -52 -6 -52 6 0 19 10 30 23
10 12 18 16 19 10 0 -22 27 -14 45 13 17 26 20 26 83 21 36 -4 69 -12 74 -19
6 -10 8 -10 8 0 0 6 12 12 27 12 14 0 24 -3 20 -6 -3 -4 1 -20 9 -36 9 -16 13
-35 11 -42 -3 -7 -1 -19 4 -27 13 -21 11 65 -2 94 -10 23 -19 25 -106 32 -66
5 -103 3 -124 -5 -20 -9 -33 -9 -42 -2 -6 6 -30 13 -52 17 -22 3 -60 10 -85
15 -58 11 -140 19 -140 13z m250 -73 c0 -5 -5 -10 -11 -10 -5 0 -7 5 -4 10 3
6 8 10 11 10 2 0 4 -4 4 -10z m-109 -67 c13 -16 12 -17 -3 -4 -17 13 -22 21
-14 21 2 0 10 -8 17 -17z"/>
<path d="M2612 168 c5 -13 38 -20 38 -8 0 4 -9 10 -21 13 -12 3 -19 1 -17 -5z"/>
<path d="M1460 159 c0 -5 5 -7 10 -4 6 3 10 8 10 11 0 2 -4 4 -10 4 -5 0 -10
-5 -10 -11z"/>
<path d="M1683 155 c-3 -9 -3 -18 0 -22 10 -10 37 6 37 22 0 20 -29 20 -37 0z"/>
<path d="M1170 155 c0 -14 53 -141 62 -150 8 -7 9 -4 4 10 -4 11 -4 16 0 12 4
-4 13 -2 21 4 10 9 13 7 13 -10 0 -11 4 -21 9 -21 12 0 -3 55 -21 78 -39 54
-88 96 -88 77z m80 -98 c0 -18 -2 -19 -10 -7 -13 20 -13 43 0 35 6 -3 10 -16
10 -28z"/>
<path d="M3775 146 c17 -8 32 -12 34 -10 7 7 -3 12 -34 18 l-30 6 30 -14z"/>
<path d="M2485 140 c-3 -5 -1 -10 4 -10 6 0 11 5 11 10 0 6 -2 10 -4 10 -3 0
-8 -4 -11 -10z"/>
<path d="M3986 119 c-19 -23 -26 -42 -26 -75 0 -25 5 -44 11 -44 7 0 10 15 7
39 -2 22 0 37 3 35 4 -2 10 3 13 12 4 10 2 13 -7 8 -6 -4 -2 3 10 15 25 24 38
27 30 7 -3 -8 2 -16 11 -18 10 -3 18 -15 19 -27 1 -12 -2 -19 -7 -16 -5 3 -8
-3 -7 -14 1 -11 3 -18 6 -16 2 3 9 1 15 -4 13 -9 76 -23 76 -16 0 3 -16 12
-36 20 -30 12 -35 19 -31 36 6 21 -35 89 -53 89 -5 0 -20 -14 -34 -31z"/>
<path d="M856 125 c-16 -12 -17 -15 -4 -15 9 0 18 7 22 15 7 18 6 18 -18 0z"/>
<path d="M920 126 c0 -9 5 -16 10 -16 6 0 10 4 10 9 0 6 -4 13 -10 16 -5 3
-10 -1 -10 -9z"/>
<path d="M1006 127 c3 -10 9 -15 12 -12 3 3 0 11 -7 18 -10 9 -11 8 -5 -6z"/>
<path d="M1476 123 c-4 -9 -3 -20 1 -24 4 -4 9 3 9 17 2 28 -1 31 -10 7z"/>
<path d="M607 110 c-40 -12 -146 -104 -124 -108 9 -2 40 15 70 37 73 56 113
69 135 46 16 -16 16 -17 -5 -6 -32 16 -41 13 -15 -5 18 -12 20 -19 12 -35 -6
-11 -21 -19 -35 -19 -13 0 -26 -3 -28 -7 -3 -5 8 -8 25 -8 24 0 34 7 52 37 19
33 19 39 6 52 -20 20 -59 27 -93 16z"/>
<path d="M1534 109 c-3 -6 -2 -15 3 -20 5 -5 9 -1 10 11 2 22 -2 25 -13 9z"/>
<path d="M2095 110 c-9 -14 13 -50 31 -50 10 0 14 6 11 14 -3 8 -1 17 6 20 7
2 2 5 -11 5 -15 1 -21 -3 -16 -11 4 -7 3 -8 -5 -4 -9 6 -9 11 0 22 7 9 8 14 1
14 -6 0 -14 -4 -17 -10z"/>
<path d="M1290 102 c0 -16 60 -102 71 -102 7 0 4 9 -6 20 -18 20 -18 21 1 14
10 -4 22 -11 25 -16 3 -5 18 -11 34 -14 25 -4 27 -3 15 11 -14 17 -35 21 -24
3 4 -7 3 -8 -5 -4 -6 4 -9 11 -6 16 3 4 -17 24 -45 44 -52 38 -60 41 -60 28z"/>
<path d="M2179 108 c-1 -2 -3 -16 -5 -33 -3 -28 -2 -29 12 -11 8 11 14 23 14
27 0 8 -19 23 -21 17z"/>
<path d="M2798 103 c-26 -6 -22 -23 18 -68 25 -28 32 -33 23 -15 l-12 25 25
-22 c30 -28 53 -31 38 -6 -24 42 -76 90 -92 86z"/>
<path d="M3720 100 c0 -5 7 -7 15 -4 8 4 15 8 15 10 0 2 -7 4 -15 4 -8 0 -15
-4 -15 -10z"/>
<path d="M4338 88 c6 -23 8 -23 14 0 3 11 0 19 -7 19 -7 0 -10 -8 -7 -19z"/>
<path d="M1901 87 c-8 -11 -6 -18 8 -31 22 -20 33 -10 24 22 -6 25 -16 28 -32
9z m19 -17 c0 -5 -2 -10 -4 -10 -3 0 -8 5 -11 10 -3 6 -1 10 4 10 6 0 11 -4
11 -10z"/>
<path d="M918 83 c6 -2 18 -2 25 0 6 3 1 5 -13 5 -14 0 -19 -2 -12 -5z"/>
<path d="M3661 64 c-6 -14 -11 -35 -10 -47 1 -16 4 -13 12 13 6 19 15 38 20
41 5 4 5 9 0 12 -6 4 -15 -5 -22 -19z"/>
<path d="M3795 79 c-4 -6 -4 -13 0 -17 3 -3 10 -1 14 7 6 10 11 9 24 -3 9 -9
18 -12 21 -8 3 5 -6 14 -20 21 -31 14 -31 14 -39 0z"/>
<path d="M16 71 c-4 -6 -10 -24 -12 -39 l-5 -27 22 21 c16 17 19 26 11 39 -6
12 -11 14 -16 6z"/>
<path d="M1587 67 c-3 -8 1 -14 8 -14 7 0 11 6 8 14 -3 7 -6 13 -8 13 -2 0 -5
-6 -8 -13z"/>
<path d="M2457 67 c-10 -26 7 -36 30 -17 19 15 20 19 7 24 -23 9 -31 7 -37 -7z"/>
<path d="M3119 63 c-49 -14 -107 -63 -76 -63 9 0 17 4 17 10 0 10 51 40 68 40
5 0 12 -9 15 -20 3 -11 0 -20 -6 -20 -6 0 -7 -3 -4 -6 11 -11 57 26 57 45 0
26 -18 30 -71 14z m47 -30 c-10 -10 -19 5 -10 18 6 11 8 11 12 0 2 -7 1 -15
-2 -18z"/>
<path d="M2070 51 c0 -25 6 -27 13 -6 4 8 2 17 -3 20 -6 4 -10 -3 -10 -14z"/>
<path d="M3755 51 c-4 -7 1 -9 12 -5 10 3 7 -2 -7 -10 -14 -8 -19 -15 -12 -16
7 0 11 -4 8 -9 -3 -4 5 -6 19 -4 19 4 22 9 16 26 -9 24 -26 33 -36 18z"/>
<path d="M960 40 c0 -5 4 -10 9 -10 6 0 13 5 16 10 3 6 -1 10 -9 10 -9 0 -16
-4 -16 -10z"/>
<path d="M1005 36 c3 -11 0 -23 -7 -28 -9 -5 -10 -8 -1 -8 19 0 25 18 13 37
-11 17 -11 16 -5 -1z"/>
<path d="M1618 44 c-8 -7 2 -44 11 -44 8 0 8 37 0 45 -3 3 -8 2 -11 -1z"/>
<path d="M2100 39 c0 -5 5 -7 10 -4 6 3 10 8 10 11 0 2 -4 4 -10 4 -5 0 -10
-5 -10 -11z"/>
<path d="M1940 30 c0 -5 5 -10 11 -10 5 0 7 5 4 10 -3 6 -8 10 -11 10 -2 0 -4
-4 -4 -10z"/>
<path d="M2590 20 c0 -21 15 -27 25 -10 3 6 1 10 -5 10 -6 0 -8 5 -5 10 3 6 1
10 -4 10 -6 0 -11 -9 -11 -20z"/>
<path d="M3849 38 c-6 -21 -5 -38 2 -38 5 0 9 9 9 20 0 16 -7 28 -11 18z"/>
<path d="M813 15 c0 -8 4 -12 9 -9 4 3 8 9 8 15 0 5 -4 9 -8 9 -5 0 -9 -7 -9
-15z"/>
<path d="M920 20 c0 -5 5 -10 10 -10 6 0 10 5 10 10 0 6 -4 10 -10 10 -5 0
-10 -4 -10 -10z"/>
<path d="M2231 14 c-12 -14 -11 -15 8 -12 12 1 22 7 22 13 1 16 -15 15 -30 -1z"/>
<path d="M2660 16 c0 -9 5 -16 10 -16 6 0 10 4 10 9 0 6 -4 13 -10 16 -5 3
-10 -1 -10 -9z"/>
<path d="M4409 17 c4 -4 23 -4 42 1 l34 10 -42 -1 c-24 -1 -39 -5 -34 -10z"/>
<path d="M3075 11 c-3 -6 4 -8 16 -6 30 6 37 15 11 15 -11 0 -23 -4 -27 -9z"/>
</g>
</svg>
